ISO-10303-21;
HEADER;
/* Generated by software containing ST-Developer
 * from STEP Tools, Inc. (www.steptools.com) 
 */
/* OPTION: using custom renumber hook */

FILE_DESCRIPTION(
/* description */ ('STEP AP214'),
/* implementation_level */ '2;1');

FILE_NAME(
/* name */ 'TSM-102-01-L-SV',
/* time_stamp */ '2026-09-02T18:32:13+02:00',
/* author */ ('License CC BY-ND 4.0'),
/* organization */ ('CADENAS'),
/* preprocessor_version */ 'ST-DEVELOPER v20',
/* originating_system */ 'PARTsolutions',
/* authorisation */ '  ');

FILE_SCHEMA (('AUTOMOTIVE_DESIGN {1 0 10303 214 3 1 1}'));
ENDSEC;

DATA;
#10=PROPERTY_DEFINITION_REPRESENTATION(#14,#12);
#11=PROPERTY_DEFINITION_REPRESENTATION(#15,#13);
#12=REPRESENTATION('',(#16),#1871);
#13=REPRESENTATION('',(#17),#1871);
#14=PROPERTY_DEFINITION('pmi validation property','',#1885);
#15=PROPERTY_DEFINITION('pmi validation property','',#1885);
#16=VALUE_REPRESENTATION_ITEM('number of annotations',COUNT_MEASURE(0.));
#17=VALUE_REPRESENTATION_ITEM('number of views',COUNT_MEASURE(0.));
#18=CYLINDRICAL_SURFACE('',#1241,0.045);
#19=CYLINDRICAL_SURFACE('',#1243,0.045);
#20=CYLINDRICAL_SURFACE('',#1249,0.02);
#21=CYLINDRICAL_SURFACE('',#1256,0.02);
#22=CIRCLE('',#1232,0.02);
#23=CIRCLE('',#1233,0.045);
#24=CIRCLE('',#1235,0.02);
#25=CIRCLE('',#1236,0.045);
#26=CIRCLE('',#1242,0.045);
#27=CIRCLE('',#1244,0.045);
#28=CIRCLE('',#1247,0.02);
#29=CIRCLE('',#1250,0.02);
#30=CONTEXT_DEPENDENT_SHAPE_REPRESENTATION(#36,#1887);
#31=CONTEXT_DEPENDENT_SHAPE_REPRESENTATION(#37,#1889);
#32=CONTEXT_DEPENDENT_SHAPE_REPRESENTATION(#38,#1891);
#33=NEXT_ASSEMBLY_USAGE_OCCURRENCE('NAUO1','TSM-102-01-SV_body',
'TSM-102-01-SV_body',#1892,#1893,'');
#34=NEXT_ASSEMBLY_USAGE_OCCURRENCE('NAUO2','T-1S6-16-L(-01-2-SV)',
'T-1S6-16-L(-01-2-SV)',#1892,#1894,'');
#35=NEXT_ASSEMBLY_USAGE_OCCURRENCE('NAUO3','T-1S6-16-L(-01-2-SV)2',
'T-1S6-16-L(-01-2-SV)2',#1892,#1895,'');
#36=(
REPRESENTATION_RELATIONSHIP(' ',' ',#1187,#1186)
REPRESENTATION_RELATIONSHIP_WITH_TRANSFORMATION(#39)
SHAPE_REPRESENTATION_RELATIONSHIP()
);
#37=(
REPRESENTATION_RELATIONSHIP(' ',' ',#1188,#1186)
REPRESENTATION_RELATIONSHIP_WITH_TRANSFORMATION(#40)
SHAPE_REPRESENTATION_RELATIONSHIP()
);
#38=(
REPRESENTATION_RELATIONSHIP(' ',' ',#1189,#1186)
REPRESENTATION_RELATIONSHIP_WITH_TRANSFORMATION(#41)
SHAPE_REPRESENTATION_RELATIONSHIP()
);
#39=ITEM_DEFINED_TRANSFORMATION(' ',' ',#1190,#1213);
#40=ITEM_DEFINED_TRANSFORMATION(' ',' ',#1190,#1228);
#41=ITEM_DEFINED_TRANSFORMATION(' ',' ',#1190,#1259);
#42=SHAPE_REPRESENTATION_RELATIONSHIP('','',#1187,#45);
#43=SHAPE_REPRESENTATION_RELATIONSHIP('','',#1188,#46);
#44=SHAPE_REPRESENTATION_RELATIONSHIP('','',#1189,#47);
#45=ADVANCED_BREP_SHAPE_REPRESENTATION('',(#1179),#1872);
#46=ADVANCED_BREP_SHAPE_REPRESENTATION('',(#1180),#1873);
#47=ADVANCED_BREP_SHAPE_REPRESENTATION('',(#1181),#1874);
#48=ORIENTED_EDGE('',*,*,#360,.F.);
#49=ORIENTED_EDGE('',*,*,#361,.F.);
#50=ORIENTED_EDGE('',*,*,#362,.F.);
#51=ORIENTED_EDGE('',*,*,#363,.F.);
#52=ORIENTED_EDGE('',*,*,#364,.F.);
#53=ORIENTED_EDGE('',*,*,#365,.F.);
#54=ORIENTED_EDGE('',*,*,#366,.F.);
#55=ORIENTED_EDGE('',*,*,#367,.F.);
#56=ORIENTED_EDGE('',*,*,#368,.F.);
#57=ORIENTED_EDGE('',*,*,#369,.F.);
#58=ORIENTED_EDGE('',*,*,#370,.T.);
#59=ORIENTED_EDGE('',*,*,#371,.T.);
#60=ORIENTED_EDGE('',*,*,#372,.T.);
#61=ORIENTED_EDGE('',*,*,#373,.F.);
#62=ORIENTED_EDGE('',*,*,#374,.F.);
#63=ORIENTED_EDGE('',*,*,#375,.F.);
#64=ORIENTED_EDGE('',*,*,#376,.T.);
#65=ORIENTED_EDGE('',*,*,#377,.T.);
#66=ORIENTED_EDGE('',*,*,#378,.T.);
#67=ORIENTED_EDGE('',*,*,#379,.F.);
#68=ORIENTED_EDGE('',*,*,#380,.T.);
#69=ORIENTED_EDGE('',*,*,#381,.T.);
#70=ORIENTED_EDGE('',*,*,#382,.T.);
#71=ORIENTED_EDGE('',*,*,#383,.T.);
#72=ORIENTED_EDGE('',*,*,#384,.T.);
#73=ORIENTED_EDGE('',*,*,#385,.T.);
#74=ORIENTED_EDGE('',*,*,#386,.T.);
#75=ORIENTED_EDGE('',*,*,#387,.T.);
#76=ORIENTED_EDGE('',*,*,#388,.T.);
#77=ORIENTED_EDGE('',*,*,#389,.T.);
#78=ORIENTED_EDGE('',*,*,#390,.T.);
#79=ORIENTED_EDGE('',*,*,#391,.F.);
#80=ORIENTED_EDGE('',*,*,#392,.F.);
#81=ORIENTED_EDGE('',*,*,#393,.F.);
#82=ORIENTED_EDGE('',*,*,#394,.T.);
#83=ORIENTED_EDGE('',*,*,#395,.T.);
#84=ORIENTED_EDGE('',*,*,#396,.T.);
#85=ORIENTED_EDGE('',*,*,#397,.F.);
#86=ORIENTED_EDGE('',*,*,#398,.F.);
#87=ORIENTED_EDGE('',*,*,#399,.F.);
#88=ORIENTED_EDGE('',*,*,#400,.T.);
#89=ORIENTED_EDGE('',*,*,#399,.T.);
#90=ORIENTED_EDGE('',*,*,#401,.F.);
#91=ORIENTED_EDGE('',*,*,#370,.F.);
#92=ORIENTED_EDGE('',*,*,#402,.F.);
#93=ORIENTED_EDGE('',*,*,#378,.F.);
#94=ORIENTED_EDGE('',*,*,#403,.T.);
#95=ORIENTED_EDGE('',*,*,#391,.T.);
#96=ORIENTED_EDGE('',*,*,#404,.F.);
#97=ORIENTED_EDGE('',*,*,#372,.F.);
#98=ORIENTED_EDGE('',*,*,#405,.T.);
#99=ORIENTED_EDGE('',*,*,#397,.T.);
#100=ORIENTED_EDGE('',*,*,#406,.T.);
#101=ORIENTED_EDGE('',*,*,#393,.T.);
#102=ORIENTED_EDGE('',*,*,#407,.F.);
#103=ORIENTED_EDGE('',*,*,#376,.F.);
#104=ORIENTED_EDGE('',*,*,#398,.T.);
#105=ORIENTED_EDGE('',*,*,#405,.F.);
#106=ORIENTED_EDGE('',*,*,#371,.F.);
#107=ORIENTED_EDGE('',*,*,#401,.T.);
#108=ORIENTED_EDGE('',*,*,#384,.F.);
#109=ORIENTED_EDGE('',*,*,#408,.F.);
#110=ORIENTED_EDGE('',*,*,#364,.T.);
#111=ORIENTED_EDGE('',*,*,#409,.T.);
#112=ORIENTED_EDGE('',*,*,#387,.F.);
#113=ORIENTED_EDGE('',*,*,#410,.F.);
#114=ORIENTED_EDGE('',*,*,#365,.T.);
#115=ORIENTED_EDGE('',*,*,#408,.T.);
#116=ORIENTED_EDGE('',*,*,#386,.F.);
#117=ORIENTED_EDGE('',*,*,#411,.F.);
#118=ORIENTED_EDGE('',*,*,#366,.T.);
#119=ORIENTED_EDGE('',*,*,#410,.T.);
#120=ORIENTED_EDGE('',*,*,#380,.F.);
#121=ORIENTED_EDGE('',*,*,#412,.F.);
#122=ORIENTED_EDGE('',*,*,#360,.T.);
#123=ORIENTED_EDGE('',*,*,#413,.T.);
#124=ORIENTED_EDGE('',*,*,#383,.F.);
#125=ORIENTED_EDGE('',*,*,#414,.F.);
#126=ORIENTED_EDGE('',*,*,#361,.T.);
#127=ORIENTED_EDGE('',*,*,#412,.T.);
#128=ORIENTED_EDGE('',*,*,#382,.F.);
#129=ORIENTED_EDGE('',*,*,#415,.F.);
#130=ORIENTED_EDGE('',*,*,#362,.T.);
#131=ORIENTED_EDGE('',*,*,#414,.T.);
#132=ORIENTED_EDGE('',*,*,#385,.F.);
#133=ORIENTED_EDGE('',*,*,#409,.F.);
#134=ORIENTED_EDGE('',*,*,#367,.T.);
#135=ORIENTED_EDGE('',*,*,#411,.T.);
#136=ORIENTED_EDGE('',*,*,#381,.F.);
#137=ORIENTED_EDGE('',*,*,#413,.F.);
#138=ORIENTED_EDGE('',*,*,#363,.T.);
#139=ORIENTED_EDGE('',*,*,#415,.T.);
#140=ORIENTED_EDGE('',*,*,#392,.T.);
#141=ORIENTED_EDGE('',*,*,#403,.F.);
#142=ORIENTED_EDGE('',*,*,#377,.F.);
#143=ORIENTED_EDGE('',*,*,#407,.T.);
#144=ORIENTED_EDGE('',*,*,#396,.F.);
#145=ORIENTED_EDGE('',*,*,#416,.F.);
#146=ORIENTED_EDGE('',*,*,#373,.T.);
#147=ORIENTED_EDGE('',*,*,#404,.T.);
#148=ORIENTED_EDGE('',*,*,#394,.F.);
#149=ORIENTED_EDGE('',*,*,#406,.F.);
#150=ORIENTED_EDGE('',*,*,#375,.T.);
#151=ORIENTED_EDGE('',*,*,#417,.T.);
#152=ORIENTED_EDGE('',*,*,#395,.F.);
#153=ORIENTED_EDGE('',*,*,#417,.F.);
#154=ORIENTED_EDGE('',*,*,#374,.T.);
#155=ORIENTED_EDGE('',*,*,#416,.T.);
#156=ORIENTED_EDGE('',*,*,#388,.F.);
#157=ORIENTED_EDGE('',*,*,#400,.F.);
#158=ORIENTED_EDGE('',*,*,#369,.T.);
#159=ORIENTED_EDGE('',*,*,#418,.T.);
#160=ORIENTED_EDGE('',*,*,#389,.F.);
#161=ORIENTED_EDGE('',*,*,#418,.F.);
#162=ORIENTED_EDGE('',*,*,#368,.T.);
#163=ORIENTED_EDGE('',*,*,#419,.T.);
#164=ORIENTED_EDGE('',*,*,#390,.F.);
#165=ORIENTED_EDGE('',*,*,#419,.F.);
#166=ORIENTED_EDGE('',*,*,#379,.T.);
#167=ORIENTED_EDGE('',*,*,#402,.T.);
#168=ORIENTED_EDGE('',*,*,#420,.F.);
#169=ORIENTED_EDGE('',*,*,#421,.F.);
#170=ORIENTED_EDGE('',*,*,#422,.T.);
#171=ORIENTED_EDGE('',*,*,#423,.T.);
#172=ORIENTED_EDGE('',*,*,#424,.F.);
#173=ORIENTED_EDGE('',*,*,#425,.T.);
#174=ORIENTED_EDGE('',*,*,#426,.F.);
#175=ORIENTED_EDGE('',*,*,#427,.F.);
#176=ORIENTED_EDGE('',*,*,#421,.T.);
#177=ORIENTED_EDGE('',*,*,#428,.T.);
#178=ORIENTED_EDGE('',*,*,#427,.T.);
#179=ORIENTED_EDGE('',*,*,#429,.T.);
#180=ORIENTED_EDGE('',*,*,#430,.T.);
#181=ORIENTED_EDGE('',*,*,#431,.T.);
#182=ORIENTED_EDGE('',*,*,#432,.T.);
#183=ORIENTED_EDGE('',*,*,#433,.T.);
#184=ORIENTED_EDGE('',*,*,#434,.F.);
#185=ORIENTED_EDGE('',*,*,#423,.F.);
#186=ORIENTED_EDGE('',*,*,#435,.F.);
#187=ORIENTED_EDGE('',*,*,#436,.F.);
#188=ORIENTED_EDGE('',*,*,#437,.F.);
#189=ORIENTED_EDGE('',*,*,#438,.F.);
#190=ORIENTED_EDGE('',*,*,#439,.F.);
#191=ORIENTED_EDGE('',*,*,#425,.F.);
#192=ORIENTED_EDGE('',*,*,#440,.F.);
#193=ORIENTED_EDGE('',*,*,#441,.T.);
#194=ORIENTED_EDGE('',*,*,#438,.T.);
#195=ORIENTED_EDGE('',*,*,#442,.F.);
#196=ORIENTED_EDGE('',*,*,#443,.F.);
#197=ORIENTED_EDGE('',*,*,#444,.F.);
#198=ORIENTED_EDGE('',*,*,#430,.F.);
#199=ORIENTED_EDGE('',*,*,#445,.T.);
#200=ORIENTED_EDGE('',*,*,#446,.F.);
#201=ORIENTED_EDGE('',*,*,#447,.T.);
#202=ORIENTED_EDGE('',*,*,#436,.T.);
#203=ORIENTED_EDGE('',*,*,#448,.T.);
#204=ORIENTED_EDGE('',*,*,#449,.F.);
#205=ORIENTED_EDGE('',*,*,#450,.T.);
#206=ORIENTED_EDGE('',*,*,#432,.F.);
#207=ORIENTED_EDGE('',*,*,#451,.T.);
#208=ORIENTED_EDGE('',*,*,#452,.F.);
#209=ORIENTED_EDGE('',*,*,#442,.T.);
#210=ORIENTED_EDGE('',*,*,#437,.T.);
#211=ORIENTED_EDGE('',*,*,#447,.F.);
#212=ORIENTED_EDGE('',*,*,#453,.F.);
#213=ORIENTED_EDGE('',*,*,#451,.F.);
#214=ORIENTED_EDGE('',*,*,#431,.F.);
#215=ORIENTED_EDGE('',*,*,#444,.T.);
#216=ORIENTED_EDGE('',*,*,#435,.T.);
#217=ORIENTED_EDGE('',*,*,#422,.F.);
#218=ORIENTED_EDGE('',*,*,#433,.F.);
#219=ORIENTED_EDGE('',*,*,#450,.F.);
#220=ORIENTED_EDGE('',*,*,#454,.T.);
#221=ORIENTED_EDGE('',*,*,#445,.F.);
#222=ORIENTED_EDGE('',*,*,#429,.F.);
#223=ORIENTED_EDGE('',*,*,#426,.T.);
#224=ORIENTED_EDGE('',*,*,#439,.T.);
#225=ORIENTED_EDGE('',*,*,#441,.F.);
#226=ORIENTED_EDGE('',*,*,#455,.T.);
#227=ORIENTED_EDGE('',*,*,#448,.F.);
#228=ORIENTED_EDGE('',*,*,#440,.T.);
#229=ORIENTED_EDGE('',*,*,#452,.T.);
#230=ORIENTED_EDGE('',*,*,#446,.T.);
#231=ORIENTED_EDGE('',*,*,#455,.F.);
#232=ORIENTED_EDGE('',*,*,#443,.T.);
#233=ORIENTED_EDGE('',*,*,#454,.F.);
#234=ORIENTED_EDGE('',*,*,#449,.T.);
#235=ORIENTED_EDGE('',*,*,#453,.T.);
#236=ORIENTED_EDGE('',*,*,#420,.T.);
#237=ORIENTED_EDGE('',*,*,#434,.T.);
#238=ORIENTED_EDGE('',*,*,#424,.T.);
#239=ORIENTED_EDGE('',*,*,#428,.F.);
#240=ORIENTED_EDGE('',*,*,#456,.F.);
#241=ORIENTED_EDGE('',*,*,#457,.T.);
#242=ORIENTED_EDGE('',*,*,#458,.F.);
#243=ORIENTED_EDGE('',*,*,#459,.F.);
#244=ORIENTED_EDGE('',*,*,#460,.F.);
#245=ORIENTED_EDGE('',*,*,#461,.F.);
#246=ORIENTED_EDGE('',*,*,#462,.T.);
#247=ORIENTED_EDGE('',*,*,#463,.T.);
#248=ORIENTED_EDGE('',*,*,#461,.T.);
#249=ORIENTED_EDGE('',*,*,#464,.T.);
#250=ORIENTED_EDGE('',*,*,#459,.T.);
#251=ORIENTED_EDGE('',*,*,#465,.T.);
#252=ORIENTED_EDGE('',*,*,#466,.T.);
#253=ORIENTED_EDGE('',*,*,#467,.F.);
#254=ORIENTED_EDGE('',*,*,#468,.T.);
#255=ORIENTED_EDGE('',*,*,#469,.T.);
#256=ORIENTED_EDGE('',*,*,#470,.T.);
#257=ORIENTED_EDGE('',*,*,#471,.F.);
#258=ORIENTED_EDGE('',*,*,#472,.T.);
#259=ORIENTED_EDGE('',*,*,#473,.T.);
#260=ORIENTED_EDGE('',*,*,#474,.F.);
#261=ORIENTED_EDGE('',*,*,#463,.F.);
#262=ORIENTED_EDGE('',*,*,#475,.F.);
#263=ORIENTED_EDGE('',*,*,#476,.F.);
#264=ORIENTED_EDGE('',*,*,#477,.T.);
#265=ORIENTED_EDGE('',*,*,#478,.F.);
#266=ORIENTED_EDGE('',*,*,#479,.F.);
#267=ORIENTED_EDGE('',*,*,#480,.F.);
#268=ORIENTED_EDGE('',*,*,#481,.T.);
#269=ORIENTED_EDGE('',*,*,#482,.F.);
#270=ORIENTED_EDGE('',*,*,#483,.F.);
#271=ORIENTED_EDGE('',*,*,#457,.F.);
#272=ORIENTED_EDGE('',*,*,#484,.F.);
#273=ORIENTED_EDGE('',*,*,#485,.T.);
#274=ORIENTED_EDGE('',*,*,#482,.T.);
#275=ORIENTED_EDGE('',*,*,#486,.F.);
#276=ORIENTED_EDGE('',*,*,#487,.F.);
#277=ORIENTED_EDGE('',*,*,#488,.F.);
#278=ORIENTED_EDGE('',*,*,#466,.F.);
#279=ORIENTED_EDGE('',*,*,#489,.T.);
#280=ORIENTED_EDGE('',*,*,#490,.F.);
#281=ORIENTED_EDGE('',*,*,#491,.T.);
#282=ORIENTED_EDGE('',*,*,#476,.T.);
#283=ORIENTED_EDGE('',*,*,#492,.T.);
#284=ORIENTED_EDGE('',*,*,#493,.F.);
#285=ORIENTED_EDGE('',*,*,#494,.T.);
#286=ORIENTED_EDGE('',*,*,#472,.F.);
#287=ORIENTED_EDGE('',*,*,#495,.T.);
#288=ORIENTED_EDGE('',*,*,#496,.T.);
#289=ORIENTED_EDGE('',*,*,#495,.F.);
#290=ORIENTED_EDGE('',*,*,#471,.T.);
#291=ORIENTED_EDGE('',*,*,#497,.F.);
#292=ORIENTED_EDGE('',*,*,#498,.F.);
#293=ORIENTED_EDGE('',*,*,#486,.T.);
#294=ORIENTED_EDGE('',*,*,#481,.F.);
#295=ORIENTED_EDGE('',*,*,#499,.F.);
#296=ORIENTED_EDGE('',*,*,#499,.T.);
#297=ORIENTED_EDGE('',*,*,#480,.T.);
#298=ORIENTED_EDGE('',*,*,#500,.F.);
#299=ORIENTED_EDGE('',*,*,#501,.T.);
#300=ORIENTED_EDGE('',*,*,#502,.T.);
#301=ORIENTED_EDGE('',*,*,#490,.T.);
#302=ORIENTED_EDGE('',*,*,#503,.T.);
#303=ORIENTED_EDGE('',*,*,#484,.T.);
#304=ORIENTED_EDGE('',*,*,#498,.T.);
#305=ORIENTED_EDGE('',*,*,#501,.F.);
#306=ORIENTED_EDGE('',*,*,#504,.F.);
#307=ORIENTED_EDGE('',*,*,#505,.F.);
#308=ORIENTED_EDGE('',*,*,#458,.T.);
#309=ORIENTED_EDGE('',*,*,#483,.T.);
#310=ORIENTED_EDGE('',*,*,#485,.F.);
#311=ORIENTED_EDGE('',*,*,#503,.F.);
#312=ORIENTED_EDGE('',*,*,#492,.F.);
#313=ORIENTED_EDGE('',*,*,#475,.T.);
#314=ORIENTED_EDGE('',*,*,#462,.F.);
#315=ORIENTED_EDGE('',*,*,#473,.F.);
#316=ORIENTED_EDGE('',*,*,#494,.F.);
#317=ORIENTED_EDGE('',*,*,#506,.F.);
#318=ORIENTED_EDGE('',*,*,#489,.F.);
#319=ORIENTED_EDGE('',*,*,#465,.F.);
#320=ORIENTED_EDGE('',*,*,#507,.F.);
#321=ORIENTED_EDGE('',*,*,#508,.F.);
#322=ORIENTED_EDGE('',*,*,#467,.T.);
#323=ORIENTED_EDGE('',*,*,#488,.T.);
#324=ORIENTED_EDGE('',*,*,#508,.T.);
#325=ORIENTED_EDGE('',*,*,#509,.T.);
#326=ORIENTED_EDGE('',*,*,#510,.F.);
#327=ORIENTED_EDGE('',*,*,#468,.F.);
#328=ORIENTED_EDGE('',*,*,#510,.T.);
#329=ORIENTED_EDGE('',*,*,#511,.T.);
#330=ORIENTED_EDGE('',*,*,#512,.F.);
#331=ORIENTED_EDGE('',*,*,#469,.F.);
#332=ORIENTED_EDGE('',*,*,#512,.T.);
#333=ORIENTED_EDGE('',*,*,#513,.T.);
#334=ORIENTED_EDGE('',*,*,#497,.T.);
#335=ORIENTED_EDGE('',*,*,#470,.F.);
#336=ORIENTED_EDGE('',*,*,#514,.F.);
#337=ORIENTED_EDGE('',*,*,#504,.T.);
#338=ORIENTED_EDGE('',*,*,#500,.T.);
#339=ORIENTED_EDGE('',*,*,#479,.T.);
#340=ORIENTED_EDGE('',*,*,#515,.F.);
#341=ORIENTED_EDGE('',*,*,#505,.T.);
#342=ORIENTED_EDGE('',*,*,#514,.T.);
#343=ORIENTED_EDGE('',*,*,#478,.T.);
#344=ORIENTED_EDGE('',*,*,#502,.F.);
#345=ORIENTED_EDGE('',*,*,#515,.T.);
#346=ORIENTED_EDGE('',*,*,#477,.F.);
#347=ORIENTED_EDGE('',*,*,#491,.F.);
#348=ORIENTED_EDGE('',*,*,#507,.T.);
#349=ORIENTED_EDGE('',*,*,#487,.T.);
#350=ORIENTED_EDGE('',*,*,#506,.T.);
#351=ORIENTED_EDGE('',*,*,#493,.T.);
#352=ORIENTED_EDGE('',*,*,#496,.F.);
#353=ORIENTED_EDGE('',*,*,#513,.F.);
#354=ORIENTED_EDGE('',*,*,#511,.F.);
#355=ORIENTED_EDGE('',*,*,#509,.F.);
#356=ORIENTED_EDGE('',*,*,#460,.T.);
#357=ORIENTED_EDGE('',*,*,#474,.T.);
#358=ORIENTED_EDGE('',*,*,#456,.T.);
#359=ORIENTED_EDGE('',*,*,#464,.F.);
#360=EDGE_CURVE('',#516,#517,#620,.T.);
#361=EDGE_CURVE('',#518,#516,#621,.T.);
#362=EDGE_CURVE('',#519,#518,#622,.T.);
#363=EDGE_CURVE('',#517,#519,#623,.T.);
#364=EDGE_CURVE('',#520,#521,#624,.T.);
#365=EDGE_CURVE('',#522,#520,#625,.T.);
#366=EDGE_CURVE('',#523,#522,#626,.T.);
#367=EDGE_CURVE('',#521,#523,#627,.T.);
#368=EDGE_CURVE('',#524,#525,#628,.T.);
#369=EDGE_CURVE('',#526,#524,#629,.T.);
#370=EDGE_CURVE('',#526,#527,#630,.T.);
#371=EDGE_CURVE('',#527,#528,#631,.T.);
#372=EDGE_CURVE('',#528,#529,#632,.T.);
#373=EDGE_CURVE('',#530,#529,#633,.T.);
#374=EDGE_CURVE('',#531,#530,#634,.T.);
#375=EDGE_CURVE('',#532,#531,#635,.T.);
#376=EDGE_CURVE('',#532,#533,#636,.T.);
#377=EDGE_CURVE('',#533,#534,#637,.T.);
#378=EDGE_CURVE('',#534,#535,#638,.T.);
#379=EDGE_CURVE('',#525,#535,#639,.T.);
#380=EDGE_CURVE('',#536,#537,#640,.T.);
#381=EDGE_CURVE('',#537,#538,#641,.T.);
#382=EDGE_CURVE('',#538,#539,#642,.T.);
#383=EDGE_CURVE('',#539,#536,#643,.T.);
#384=EDGE_CURVE('',#540,#541,#644,.T.);
#385=EDGE_CURVE('',#541,#542,#645,.T.);
#386=EDGE_CURVE('',#542,#543,#646,.T.);
#387=EDGE_CURVE('',#543,#540,#647,.T.);
#388=EDGE_CURVE('',#544,#545,#648,.T.);
#389=EDGE_CURVE('',#545,#546,#649,.T.);
#390=EDGE_CURVE('',#546,#547,#650,.T.);
#391=EDGE_CURVE('',#548,#547,#651,.T.);
#392=EDGE_CURVE('',#549,#548,#652,.T.);
#393=EDGE_CURVE('',#550,#549,#653,.T.);
#394=EDGE_CURVE('',#550,#551,#654,.T.);
#395=EDGE_CURVE('',#551,#552,#655,.T.);
#396=EDGE_CURVE('',#552,#553,#656,.T.);
#397=EDGE_CURVE('',#554,#553,#657,.T.);
#398=EDGE_CURVE('',#555,#554,#658,.T.);
#399=EDGE_CURVE('',#544,#555,#659,.T.);
#400=EDGE_CURVE('',#526,#544,#660,.T.);
#401=EDGE_CURVE('',#527,#555,#661,.T.);
#402=EDGE_CURVE('',#535,#547,#662,.T.);
#403=EDGE_CURVE('',#534,#548,#663,.T.);
#404=EDGE_CURVE('',#529,#553,#664,.T.);
#405=EDGE_CURVE('',#528,#554,#665,.T.);
#406=EDGE_CURVE('',#532,#550,#666,.T.);
#407=EDGE_CURVE('',#533,#549,#667,.T.);
#408=EDGE_CURVE('',#520,#540,#668,.T.);
#409=EDGE_CURVE('',#521,#541,#669,.T.);
#410=EDGE_CURVE('',#522,#543,#670,.T.);
#411=EDGE_CURVE('',#523,#542,#671,.T.);
#412=EDGE_CURVE('',#516,#536,#672,.T.);
#413=EDGE_CURVE('',#517,#537,#673,.T.);
#414=EDGE_CURVE('',#518,#539,#674,.T.);
#415=EDGE_CURVE('',#519,#538,#675,.T.);
#416=EDGE_CURVE('',#530,#552,#676,.T.);
#417=EDGE_CURVE('',#531,#551,#677,.T.);
#418=EDGE_CURVE('',#524,#545,#678,.T.);
#419=EDGE_CURVE('',#525,#546,#679,.T.);
#420=EDGE_CURVE('',#556,#557,#680,.T.);
#421=EDGE_CURVE('',#558,#556,#681,.T.);
#422=EDGE_CURVE('',#558,#559,#682,.T.);
#423=EDGE_CURVE('',#559,#557,#683,.T.);
#424=EDGE_CURVE('',#560,#561,#684,.T.);
#425=EDGE_CURVE('',#560,#562,#685,.T.);
#426=EDGE_CURVE('',#563,#562,#686,.T.);
#427=EDGE_CURVE('',#561,#563,#687,.T.);
#428=EDGE_CURVE('',#556,#561,#688,.T.);
#429=EDGE_CURVE('',#563,#564,#689,.T.);
#430=EDGE_CURVE('',#564,#565,#690,.T.);
#431=EDGE_CURVE('',#565,#566,#691,.T.);
#432=EDGE_CURVE('',#566,#567,#692,.T.);
#433=EDGE_CURVE('',#567,#558,#693,.T.);
#434=EDGE_CURVE('',#557,#560,#694,.T.);
#435=EDGE_CURVE('',#568,#559,#695,.T.);
#436=EDGE_CURVE('',#569,#568,#696,.T.);
#437=EDGE_CURVE('',#570,#569,#697,.T.);
#438=EDGE_CURVE('',#571,#570,#698,.T.);
#439=EDGE_CURVE('',#562,#571,#699,.T.);
#440=EDGE_CURVE('',#572,#573,#700,.T.);
#441=EDGE_CURVE('',#572,#571,#701,.T.);
#442=EDGE_CURVE('',#573,#570,#702,.T.);
#443=EDGE_CURVE('',#574,#575,#703,.T.);
#444=EDGE_CURVE('',#565,#574,#704,.T.);
#445=EDGE_CURVE('',#564,#575,#705,.T.);
#446=EDGE_CURVE('',#576,#577,#706,.T.);
#447=EDGE_CURVE('',#576,#569,#707,.T.);
#448=EDGE_CURVE('',#568,#577,#708,.T.);
#449=EDGE_CURVE('',#578,#579,#709,.T.);
#450=EDGE_CURVE('',#578,#567,#710,.T.);
#451=EDGE_CURVE('',#566,#579,#711,.T.);
#452=EDGE_CURVE('',#573,#576,#712,.T.);
#453=EDGE_CURVE('',#579,#574,#713,.T.);
#454=EDGE_CURVE('',#578,#575,#714,.T.);
#455=EDGE_CURVE('',#572,#577,#715,.T.);
#456=EDGE_CURVE('',#580,#581,#716,.T.);
#457=EDGE_CURVE('',#580,#582,#717,.T.);
#458=EDGE_CURVE('',#583,#582,#718,.T.);
#459=EDGE_CURVE('',#581,#583,#719,.T.);
#460=EDGE_CURVE('',#584,#585,#720,.T.);
#461=EDGE_CURVE('',#586,#584,#721,.T.);
#462=EDGE_CURVE('',#586,#587,#722,.T.);
#463=EDGE_CURVE('',#587,#585,#723,.T.);
#464=EDGE_CURVE('',#584,#581,#724,.T.);
#465=EDGE_CURVE('',#583,#588,#725,.T.);
#466=EDGE_CURVE('',#588,#589,#726,.T.);
#467=EDGE_CURVE('',#590,#589,#22,.T.);
#468=EDGE_CURVE('',#590,#591,#727,.T.);
#469=EDGE_CURVE('',#591,#592,#728,.T.);
#470=EDGE_CURVE('',#592,#593,#729,.T.);
#471=EDGE_CURVE('',#594,#593,#23,.F.);
#472=EDGE_CURVE('',#594,#595,#730,.T.);
#473=EDGE_CURVE('',#595,#586,#731,.T.);
#474=EDGE_CURVE('',#585,#580,#732,.T.);
#475=EDGE_CURVE('',#596,#587,#733,.T.);
#476=EDGE_CURVE('',#597,#596,#734,.T.);
#477=EDGE_CURVE('',#597,#598,#24,.T.);
#478=EDGE_CURVE('',#599,#598,#735,.T.);
#479=EDGE_CURVE('',#600,#599,#736,.T.);
#480=EDGE_CURVE('',#601,#600,#737,.T.);
#481=EDGE_CURVE('',#601,#602,#25,.F.);
#482=EDGE_CURVE('',#603,#602,#738,.T.);
#483=EDGE_CURVE('',#582,#603,#739,.T.);
#484=EDGE_CURVE('',#604,#605,#740,.T.);
#485=EDGE_CURVE('',#604,#603,#741,.T.);
#486=EDGE_CURVE('',#605,#602,#742,.T.);
#487=EDGE_CURVE('',#606,#607,#743,.T.);
#488=EDGE_CURVE('',#589,#606,#744,.T.);
#489=EDGE_CURVE('',#588,#607,#745,.T.);
#490=EDGE_CURVE('',#608,#609,#746,.T.);
#491=EDGE_CURVE('',#608,#597,#747,.T.);
#492=EDGE_CURVE('',#596,#609,#748,.T.);
#493=EDGE_CURVE('',#610,#611,#749,.T.);
#494=EDGE_CURVE('',#610,#595,#750,.T.);
#495=EDGE_CURVE('',#594,#611,#751,.T.);
#496=EDGE_CURVE('',#612,#611,#26,.T.);
#497=EDGE_CURVE('',#612,#593,#752,.T.);
#498=EDGE_CURVE('',#605,#613,#27,.F.);
#499=EDGE_CURVE('',#613,#601,#753,.T.);
#500=EDGE_CURVE('',#614,#600,#754,.T.);
#501=EDGE_CURVE('',#614,#613,#755,.T.);
#502=EDGE_CURVE('',#615,#608,#28,.T.);
#503=EDGE_CURVE('',#609,#604,#756,.T.);
#504=EDGE_CURVE('',#616,#614,#757,.T.);
#505=EDGE_CURVE('',#615,#616,#758,.T.);
#506=EDGE_CURVE('',#607,#610,#759,.T.);
#507=EDGE_CURVE('',#617,#606,#29,.T.);
#508=EDGE_CURVE('',#590,#617,#760,.T.);
#509=EDGE_CURVE('',#617,#618,#761,.T.);
#510=EDGE_CURVE('',#591,#618,#762,.T.);
#511=EDGE_CURVE('',#618,#619,#763,.T.);
#512=EDGE_CURVE('',#592,#619,#764,.T.);
#513=EDGE_CURVE('',#619,#612,#765,.T.);
#514=EDGE_CURVE('',#616,#599,#766,.T.);
#515=EDGE_CURVE('',#615,#598,#767,.T.);
#516=VERTEX_POINT('',#1551);
#517=VERTEX_POINT('',#1552);
#518=VERTEX_POINT('',#1554);
#519=VERTEX_POINT('',#1556);
#520=VERTEX_POINT('',#1559);
#521=VERTEX_POINT('',#1560);
#522=VERTEX_POINT('',#1562);
#523=VERTEX_POINT('',#1564);
#524=VERTEX_POINT('',#1567);
#525=VERTEX_POINT('',#1568);
#526=VERTEX_POINT('',#1570);
#527=VERTEX_POINT('',#1572);
#528=VERTEX_POINT('',#1574);
#529=VERTEX_POINT('',#1576);
#530=VERTEX_POINT('',#1578);
#531=VERTEX_POINT('',#1580);
#532=VERTEX_POINT('',#1582);
#533=VERTEX_POINT('',#1584);
#534=VERTEX_POINT('',#1586);
#535=VERTEX_POINT('',#1588);
#536=VERTEX_POINT('',#1592);
#537=VERTEX_POINT('',#1593);
#538=VERTEX_POINT('',#1595);
#539=VERTEX_POINT('',#1597);
#540=VERTEX_POINT('',#1600);
#541=VERTEX_POINT('',#1601);
#542=VERTEX_POINT('',#1603);
#543=VERTEX_POINT('',#1605);
#544=VERTEX_POINT('',#1608);
#545=VERTEX_POINT('',#1609);
#546=VERTEX_POINT('',#1611);
#547=VERTEX_POINT('',#1613);
#548=VERTEX_POINT('',#1615);
#549=VERTEX_POINT('',#1617);
#550=VERTEX_POINT('',#1619);
#551=VERTEX_POINT('',#1621);
#552=VERTEX_POINT('',#1623);
#553=VERTEX_POINT('',#1625);
#554=VERTEX_POINT('',#1627);
#555=VERTEX_POINT('',#1629);
#556=VERTEX_POINT('',#1674);
#557=VERTEX_POINT('',#1675);
#558=VERTEX_POINT('',#1677);
#559=VERTEX_POINT('',#1679);
#560=VERTEX_POINT('',#1683);
#561=VERTEX_POINT('',#1684);
#562=VERTEX_POINT('',#1686);
#563=VERTEX_POINT('',#1688);
#564=VERTEX_POINT('',#1693);
#565=VERTEX_POINT('',#1695);
#566=VERTEX_POINT('',#1697);
#567=VERTEX_POINT('',#1699);
#568=VERTEX_POINT('',#1704);
#569=VERTEX_POINT('',#1706);
#570=VERTEX_POINT('',#1708);
#571=VERTEX_POINT('',#1710);
#572=VERTEX_POINT('',#1714);
#573=VERTEX_POINT('',#1715);
#574=VERTEX_POINT('',#1720);
#575=VERTEX_POINT('',#1721);
#576=VERTEX_POINT('',#1726);
#577=VERTEX_POINT('',#1727);
#578=VERTEX_POINT('',#1732);
#579=VERTEX_POINT('',#1733);
#580=VERTEX_POINT('',#1749);
#581=VERTEX_POINT('',#1750);
#582=VERTEX_POINT('',#1752);
#583=VERTEX_POINT('',#1754);
#584=VERTEX_POINT('',#1758);
#585=VERTEX_POINT('',#1759);
#586=VERTEX_POINT('',#1761);
#587=VERTEX_POINT('',#1763);
#588=VERTEX_POINT('',#1768);
#589=VERTEX_POINT('',#1770);
#590=VERTEX_POINT('',#1772);
#591=VERTEX_POINT('',#1774);
#592=VERTEX_POINT('',#1776);
#593=VERTEX_POINT('',#1778);
#594=VERTEX_POINT('',#1780);
#595=VERTEX_POINT('',#1782);
#596=VERTEX_POINT('',#1787);
#597=VERTEX_POINT('',#1789);
#598=VERTEX_POINT('',#1791);
#599=VERTEX_POINT('',#1793);
#600=VERTEX_POINT('',#1795);
#601=VERTEX_POINT('',#1797);
#602=VERTEX_POINT('',#1799);
#603=VERTEX_POINT('',#1801);
#604=VERTEX_POINT('',#1805);
#605=VERTEX_POINT('',#1806);
#606=VERTEX_POINT('',#1811);
#607=VERTEX_POINT('',#1812);
#608=VERTEX_POINT('',#1817);
#609=VERTEX_POINT('',#1818);
#610=VERTEX_POINT('',#1823);
#611=VERTEX_POINT('',#1824);
#612=VERTEX_POINT('',#1829);
#613=VERTEX_POINT('',#1833);
#614=VERTEX_POINT('',#1837);
#615=VERTEX_POINT('',#1841);
#616=VERTEX_POINT('',#1844);
#617=VERTEX_POINT('',#1850);
#618=VERTEX_POINT('',#1854);
#619=VERTEX_POINT('',#1858);
#620=LINE('',#1550,#768);
#621=LINE('',#1553,#769);
#622=LINE('',#1555,#770);
#623=LINE('',#1557,#771);
#624=LINE('',#1558,#772);
#625=LINE('',#1561,#773);
#626=LINE('',#1563,#774);
#627=LINE('',#1565,#775);
#628=LINE('',#1566,#776);
#629=LINE('',#1569,#777);
#630=LINE('',#1571,#778);
#631=LINE('',#1573,#779);
#632=LINE('',#1575,#780);
#633=LINE('',#1577,#781);
#634=LINE('',#1579,#782);
#635=LINE('',#1581,#783);
#636=LINE('',#1583,#784);
#637=LINE('',#1585,#785);
#638=LINE('',#1587,#786);
#639=LINE('',#1589,#787);
#640=LINE('',#1591,#788);
#641=LINE('',#1594,#789);
#642=LINE('',#1596,#790);
#643=LINE('',#1598,#791);
#644=LINE('',#1599,#792);
#645=LINE('',#1602,#793);
#646=LINE('',#1604,#794);
#647=LINE('',#1606,#795);
#648=LINE('',#1607,#796);
#649=LINE('',#1610,#797);
#650=LINE('',#1612,#798);
#651=LINE('',#1614,#799);
#652=LINE('',#1616,#800);
#653=LINE('',#1618,#801);
#654=LINE('',#1620,#802);
#655=LINE('',#1622,#803);
#656=LINE('',#1624,#804);
#657=LINE('',#1626,#805);
#658=LINE('',#1628,#806);
#659=LINE('',#1630,#807);
#660=LINE('',#1632,#808);
#661=LINE('',#1633,#809);
#662=LINE('',#1635,#810);
#663=LINE('',#1636,#811);
#664=LINE('',#1638,#812);
#665=LINE('',#1639,#813);
#666=LINE('',#1641,#814);
#667=LINE('',#1642,#815);
#668=LINE('',#1645,#816);
#669=LINE('',#1646,#817);
#670=LINE('',#1648,#818);
#671=LINE('',#1650,#819);
#672=LINE('',#1652,#820);
#673=LINE('',#1653,#821);
#674=LINE('',#1655,#822);
#675=LINE('',#1657,#823);
#676=LINE('',#1662,#824);
#677=LINE('',#1664,#825);
#678=LINE('',#1667,#826);
#679=LINE('',#1669,#827);
#680=LINE('',#1673,#828);
#681=LINE('',#1676,#829);
#682=LINE('',#1678,#830);
#683=LINE('',#1680,#831);
#684=LINE('',#1682,#832);
#685=LINE('',#1685,#833);
#686=LINE('',#1687,#834);
#687=LINE('',#1689,#835);
#688=LINE('',#1691,#836);
#689=LINE('',#1692,#837);
#690=LINE('',#1694,#838);
#691=LINE('',#1696,#839);
#692=LINE('',#1698,#840);
#693=LINE('',#1700,#841);
#694=LINE('',#1702,#842);
#695=LINE('',#1703,#843);
#696=LINE('',#1705,#844);
#697=LINE('',#1707,#845);
#698=LINE('',#1709,#846);
#699=LINE('',#1711,#847);
#700=LINE('',#1713,#848);
#701=LINE('',#1716,#849);
#702=LINE('',#1717,#850);
#703=LINE('',#1719,#851);
#704=LINE('',#1722,#852);
#705=LINE('',#1723,#853);
#706=LINE('',#1725,#854);
#707=LINE('',#1728,#855);
#708=LINE('',#1729,#856);
#709=LINE('',#1731,#857);
#710=LINE('',#1734,#858);
#711=LINE('',#1735,#859);
#712=LINE('',#1737,#860);
#713=LINE('',#1739,#861);
#714=LINE('',#1741,#862);
#715=LINE('',#1742,#863);
#716=LINE('',#1748,#864);
#717=LINE('',#1751,#865);
#718=LINE('',#1753,#866);
#719=LINE('',#1755,#867);
#720=LINE('',#1757,#868);
#721=LINE('',#1760,#869);
#722=LINE('',#1762,#870);
#723=LINE('',#1764,#871);
#724=LINE('',#1766,#872);
#725=LINE('',#1767,#873);
#726=LINE('',#1769,#874);
#727=LINE('',#1773,#875);
#728=LINE('',#1775,#876);
#729=LINE('',#1777,#877);
#730=LINE('',#1781,#878);
#731=LINE('',#1783,#879);
#732=LINE('',#1785,#880);
#733=LINE('',#1786,#881);
#734=LINE('',#1788,#882);
#735=LINE('',#1792,#883);
#736=LINE('',#1794,#884);
#737=LINE('',#1796,#885);
#738=LINE('',#1800,#886);
#739=LINE('',#1802,#887);
#740=LINE('',#1804,#888);
#741=LINE('',#1807,#889);
#742=LINE('',#1808,#890);
#743=LINE('',#1810,#891);
#744=LINE('',#1813,#892);
#745=LINE('',#1814,#893);
#746=LINE('',#1816,#894);
#747=LINE('',#1819,#895);
#748=LINE('',#1820,#896);
#749=LINE('',#1822,#897);
#750=LINE('',#1825,#898);
#751=LINE('',#1826,#899);
#752=LINE('',#1830,#900);
#753=LINE('',#1834,#901);
#754=LINE('',#1836,#902);
#755=LINE('',#1838,#903);
#756=LINE('',#1842,#904);
#757=LINE('',#1843,#905);
#758=LINE('',#1845,#906);
#759=LINE('',#1847,#907);
#760=LINE('',#1851,#908);
#761=LINE('',#1853,#909);
#762=LINE('',#1855,#910);
#763=LINE('',#1857,#911);
#764=LINE('',#1859,#912);
#765=LINE('',#1861,#913);
#766=LINE('',#1863,#914);
#767=LINE('',#1865,#915);
#768=VECTOR('',#1264,39.3700787401575);
#769=VECTOR('',#1265,39.3700787401575);
#770=VECTOR('',#1266,39.3700787401575);
#771=VECTOR('',#1267,39.3700787401575);
#772=VECTOR('',#1268,39.3700787401575);
#773=VECTOR('',#1269,39.3700787401575);
#774=VECTOR('',#1270,39.3700787401575);
#775=VECTOR('',#1271,39.3700787401575);
#776=VECTOR('',#1272,39.3700787401575);
#777=VECTOR('',#1273,39.3700787401575);
#778=VECTOR('',#1274,39.3700787401575);
#779=VECTOR('',#1275,39.3700787401575);
#780=VECTOR('',#1276,39.3700787401575);
#781=VECTOR('',#1277,39.3700787401575);
#782=VECTOR('',#1278,39.3700787401575);
#783=VECTOR('',#1279,39.3700787401575);
#784=VECTOR('',#1280,39.3700787401575);
#785=VECTOR('',#1281,39.3700787401575);
#786=VECTOR('',#1282,39.3700787401575);
#787=VECTOR('',#1283,39.3700787401575);
#788=VECTOR('',#1286,39.3700787401575);
#789=VECTOR('',#1287,39.3700787401575);
#790=VECTOR('',#1288,39.3700787401575);
#791=VECTOR('',#1289,39.3700787401575);
#792=VECTOR('',#1290,39.3700787401575);
#793=VECTOR('',#1291,39.3700787401575);
#794=VECTOR('',#1292,39.3700787401575);
#795=VECTOR('',#1293,39.3700787401575);
#796=VECTOR('',#1294,39.3700787401575);
#797=VECTOR('',#1295,39.3700787401575);
#798=VECTOR('',#1296,39.3700787401575);
#799=VECTOR('',#1297,39.3700787401575);
#800=VECTOR('',#1298,39.3700787401575);
#801=VECTOR('',#1299,39.3700787401575);
#802=VECTOR('',#1300,39.3700787401575);
#803=VECTOR('',#1301,39.3700787401575);
#804=VECTOR('',#1302,39.3700787401575);
#805=VECTOR('',#1303,39.3700787401575);
#806=VECTOR('',#1304,39.3700787401575);
#807=VECTOR('',#1305,39.3700787401575);
#808=VECTOR('',#1308,39.3700787401575);
#809=VECTOR('',#1309,39.3700787401575);
#810=VECTOR('',#1312,39.3700787401575);
#811=VECTOR('',#1313,39.3700787401575);
#812=VECTOR('',#1316,39.3700787401575);
#813=VECTOR('',#1317,39.3700787401575);
#814=VECTOR('',#1320,39.3700787401575);
#815=VECTOR('',#1321,39.3700787401575);
#816=VECTOR('',#1326,39.3700787401575);
#817=VECTOR('',#1327,39.3700787401575);
#818=VECTOR('',#1330,39.3700787401575);
#819=VECTOR('',#1333,39.3700787401575);
#820=VECTOR('',#1336,39.3700787401575);
#821=VECTOR('',#1337,39.3700787401575);
#822=VECTOR('',#1340,39.3700787401575);
#823=VECTOR('',#1343,39.3700787401575);
#824=VECTOR('',#1352,39.3700787401575);
#825=VECTOR('',#1355,39.3700787401575);
#826=VECTOR('',#1360,39.3700787401575);
#827=VECTOR('',#1363,39.3700787401575);
#828=VECTOR('',#1370,39.3700787401575);
#829=VECTOR('',#1371,39.3700787401575);
#830=VECTOR('',#1372,39.3700787401575);
#831=VECTOR('',#1373,39.3700787401575);
#832=VECTOR('',#1376,39.3700787401575);
#833=VECTOR('',#1377,39.3700787401575);
#834=VECTOR('',#1378,39.3700787401575);
#835=VECTOR('',#1379,39.3700787401575);
#836=VECTOR('',#1382,39.3700787401575);
#837=VECTOR('',#1383,39.3700787401575);
#838=VECTOR('',#1384,39.3700787401575);
#839=VECTOR('',#1385,39.3700787401575);
#840=VECTOR('',#1386,39.3700787401575);
#841=VECTOR('',#1387,39.3700787401575);
#842=VECTOR('',#1390,39.3700787401575);
#843=VECTOR('',#1391,39.3700787401575);
#844=VECTOR('',#1392,39.3700787401575);
#845=VECTOR('',#1393,39.3700787401575);
#846=VECTOR('',#1394,39.3700787401575);
#847=VECTOR('',#1395,39.3700787401575);
#848=VECTOR('',#1398,39.3700787401575);
#849=VECTOR('',#1399,39.3700787401575);
#850=VECTOR('',#1400,39.3700787401575);
#851=VECTOR('',#1403,39.3700787401575);
#852=VECTOR('',#1404,39.3700787401575);
#853=VECTOR('',#1405,39.3700787401575);
#854=VECTOR('',#1408,39.3700787401575);
#855=VECTOR('',#1409,39.3700787401575);
#856=VECTOR('',#1410,39.3700787401575);
#857=VECTOR('',#1413,39.3700787401575);
#858=VECTOR('',#1414,39.3700787401575);
#859=VECTOR('',#1415,39.3700787401575);
#860=VECTOR('',#1418,39.3700787401575);
#861=VECTOR('',#1421,39.3700787401575);
#862=VECTOR('',#1424,39.3700787401575);
#863=VECTOR('',#1425,39.3700787401575);
#864=VECTOR('',#1436,39.3700787401575);
#865=VECTOR('',#1437,39.3700787401575);
#866=VECTOR('',#1438,39.3700787401575);
#867=VECTOR('',#1439,39.3700787401575);
#868=VECTOR('',#1442,39.3700787401575);
#869=VECTOR('',#1443,39.3700787401575);
#870=VECTOR('',#1444,39.3700787401575);
#871=VECTOR('',#1445,39.3700787401575);
#872=VECTOR('',#1448,39.3700787401575);
#873=VECTOR('',#1449,39.3700787401575);
#874=VECTOR('',#1450,39.3700787401575);
#875=VECTOR('',#1453,39.3700787401575);
#876=VECTOR('',#1454,39.3700787401575);
#877=VECTOR('',#1455,39.3700787401575);
#878=VECTOR('',#1458,39.3700787401575);
#879=VECTOR('',#1459,39.3700787401575);
#880=VECTOR('',#1462,39.3700787401575);
#881=VECTOR('',#1463,39.3700787401575);
#882=VECTOR('',#1464,39.3700787401575);
#883=VECTOR('',#1467,39.3700787401575);
#884=VECTOR('',#1468,39.3700787401575);
#885=VECTOR('',#1469,39.3700787401575);
#886=VECTOR('',#1472,39.3700787401575);
#887=VECTOR('',#1473,39.3700787401575);
#888=VECTOR('',#1476,39.3700787401575);
#889=VECTOR('',#1477,39.3700787401575);
#890=VECTOR('',#1478,39.3700787401575);
#891=VECTOR('',#1481,39.3700787401575);
#892=VECTOR('',#1482,39.3700787401575);
#893=VECTOR('',#1483,39.3700787401575);
#894=VECTOR('',#1486,39.3700787401575);
#895=VECTOR('',#1487,39.3700787401575);
#896=VECTOR('',#1488,39.3700787401575);
#897=VECTOR('',#1491,39.3700787401575);
#898=VECTOR('',#1492,39.3700787401575);
#899=VECTOR('',#1493,39.3700787401575);
#900=VECTOR('',#1498,39.3700787401575);
#901=VECTOR('',#1503,39.3700787401575);
#902=VECTOR('',#1506,39.3700787401575);
#903=VECTOR('',#1507,39.3700787401575);
#904=VECTOR('',#1512,39.3700787401575);
#905=VECTOR('',#1513,39.3700787401575);
#906=VECTOR('',#1514,39.3700787401575);
#907=VECTOR('',#1517,39.3700787401575);
#908=VECTOR('',#1522,39.3700787401575);
#909=VECTOR('',#1525,39.3700787401575);
#910=VECTOR('',#1526,39.3700787401575);
#911=VECTOR('',#1529,39.3700787401575);
#912=VECTOR('',#1530,39.3700787401575);
#913=VECTOR('',#1533,39.3700787401575);
#914=VECTOR('',#1536,39.3700787401575);
#915=VECTOR('',#1539,39.3700787401575);
#916=EDGE_LOOP('',(#48,#49,#50,#51));
#917=EDGE_LOOP('',(#52,#53,#54,#55));
#918=EDGE_LOOP('',(#56,#57,#58,#59,#60,#61,#62,#63,#64,#65,#66,#67));
#919=EDGE_LOOP('',(#68,#69,#70,#71));
#920=EDGE_LOOP('',(#72,#73,#74,#75));
#921=EDGE_LOOP('',(#76,#77,#78,#79,#80,#81,#82,#83,#84,#85,#86,#87));
#922=EDGE_LOOP('',(#88,#89,#90,#91));
#923=EDGE_LOOP('',(#92,#93,#94,#95));
#924=EDGE_LOOP('',(#96,#97,#98,#99));
#925=EDGE_LOOP('',(#100,#101,#102,#103));
#926=EDGE_LOOP('',(#104,#105,#106,#107));
#927=EDGE_LOOP('',(#108,#109,#110,#111));
#928=EDGE_LOOP('',(#112,#113,#114,#115));
#929=EDGE_LOOP('',(#116,#117,#118,#119));
#930=EDGE_LOOP('',(#120,#121,#122,#123));
#931=EDGE_LOOP('',(#124,#125,#126,#127));
#932=EDGE_LOOP('',(#128,#129,#130,#131));
#933=EDGE_LOOP('',(#132,#133,#134,#135));
#934=EDGE_LOOP('',(#136,#137,#138,#139));
#935=EDGE_LOOP('',(#140,#141,#142,#143));
#936=EDGE_LOOP('',(#144,#145,#146,#147));
#937=EDGE_LOOP('',(#148,#149,#150,#151));
#938=EDGE_LOOP('',(#152,#153,#154,#155));
#939=EDGE_LOOP('',(#156,#157,#158,#159));
#940=EDGE_LOOP('',(#160,#161,#162,#163));
#941=EDGE_LOOP('',(#164,#165,#166,#167));
#942=EDGE_LOOP('',(#168,#169,#170,#171));
#943=EDGE_LOOP('',(#172,#173,#174,#175));
#944=EDGE_LOOP('',(#176,#177,#178,#179,#180,#181,#182,#183));
#945=EDGE_LOOP('',(#184,#185,#186,#187,#188,#189,#190,#191));
#946=EDGE_LOOP('',(#192,#193,#194,#195));
#947=EDGE_LOOP('',(#196,#197,#198,#199));
#948=EDGE_LOOP('',(#200,#201,#202,#203));
#949=EDGE_LOOP('',(#204,#205,#206,#207));
#950=EDGE_LOOP('',(#208,#209,#210,#211));
#951=EDGE_LOOP('',(#212,#213,#214,#215));
#952=EDGE_LOOP('',(#216,#217,#218,#219,#220,#221,#222,#223,#224,#225,#226,
#227));
#953=EDGE_LOOP('',(#228,#229,#230,#231));
#954=EDGE_LOOP('',(#232,#233,#234,#235));
#955=EDGE_LOOP('',(#236,#237,#238,#239));
#956=EDGE_LOOP('',(#240,#241,#242,#243));
#957=EDGE_LOOP('',(#244,#245,#246,#247));
#958=EDGE_LOOP('',(#248,#249,#250,#251,#252,#253,#254,#255,#256,#257,#258,
#259));
#959=EDGE_LOOP('',(#260,#261,#262,#263,#264,#265,#266,#267,#268,#269,#270,
#271));
#960=EDGE_LOOP('',(#272,#273,#274,#275));
#961=EDGE_LOOP('',(#276,#277,#278,#279));
#962=EDGE_LOOP('',(#280,#281,#282,#283));
#963=EDGE_LOOP('',(#284,#285,#286,#287));
#964=EDGE_LOOP('',(#288,#289,#290,#291));
#965=EDGE_LOOP('',(#292,#293,#294,#295));
#966=EDGE_LOOP('',(#296,#297,#298,#299));
#967=EDGE_LOOP('',(#300,#301,#302,#303,#304,#305,#306,#307));
#968=EDGE_LOOP('',(#308,#309,#310,#311,#312,#313,#314,#315,#316,#317,#318,
#319));
#969=EDGE_LOOP('',(#320,#321,#322,#323));
#970=EDGE_LOOP('',(#324,#325,#326,#327));
#971=EDGE_LOOP('',(#328,#329,#330,#331));
#972=EDGE_LOOP('',(#332,#333,#334,#335));
#973=EDGE_LOOP('',(#336,#337,#338,#339));
#974=EDGE_LOOP('',(#340,#341,#342,#343));
#975=EDGE_LOOP('',(#344,#345,#346,#347));
#976=EDGE_LOOP('',(#348,#349,#350,#351,#352,#353,#354,#355));
#977=EDGE_LOOP('',(#356,#357,#358,#359));
#978=FACE_BOUND('',#916,.T.);
#979=FACE_BOUND('',#917,.T.);
#980=FACE_BOUND('',#918,.T.);
#981=FACE_BOUND('',#919,.T.);
#982=FACE_BOUND('',#920,.T.);
#983=FACE_BOUND('',#921,.T.);
#984=FACE_BOUND('',#922,.T.);
#985=FACE_BOUND('',#923,.T.);
#986=FACE_BOUND('',#924,.T.);
#987=FACE_BOUND('',#925,.T.);
#988=FACE_BOUND('',#926,.T.);
#989=FACE_BOUND('',#927,.T.);
#990=FACE_BOUND('',#928,.T.);
#991=FACE_BOUND('',#929,.T.);
#992=FACE_BOUND('',#930,.T.);
#993=FACE_BOUND('',#931,.T.);
#994=FACE_BOUND('',#932,.T.);
#995=FACE_BOUND('',#933,.T.);
#996=FACE_BOUND('',#934,.T.);
#997=FACE_BOUND('',#935,.T.);
#998=FACE_BOUND('',#936,.T.);
#999=FACE_BOUND('',#937,.T.);
#1000=FACE_BOUND('',#938,.T.);
#1001=FACE_BOUND('',#939,.T.);
#1002=FACE_BOUND('',#940,.T.);
#1003=FACE_BOUND('',#941,.T.);
#1004=FACE_BOUND('',#942,.T.);
#1005=FACE_BOUND('',#943,.T.);
#1006=FACE_BOUND('',#944,.T.);
#1007=FACE_BOUND('',#945,.T.);
#1008=FACE_BOUND('',#946,.T.);
#1009=FACE_BOUND('',#947,.T.);
#1010=FACE_BOUND('',#948,.T.);
#1011=FACE_BOUND('',#949,.T.);
#1012=FACE_BOUND('',#950,.T.);
#1013=FACE_BOUND('',#951,.T.);
#1014=FACE_BOUND('',#952,.T.);
#1015=FACE_BOUND('',#953,.T.);
#1016=FACE_BOUND('',#954,.T.);
#1017=FACE_BOUND('',#955,.T.);
#1018=FACE_BOUND('',#956,.T.);
#1019=FACE_BOUND('',#957,.T.);
#1020=FACE_BOUND('',#958,.T.);
#1021=FACE_BOUND('',#959,.T.);
#1022=FACE_BOUND('',#960,.T.);
#1023=FACE_BOUND('',#961,.T.);
#1024=FACE_BOUND('',#962,.T.);
#1025=FACE_BOUND('',#963,.T.);
#1026=FACE_BOUND('',#964,.T.);
#1027=FACE_BOUND('',#965,.T.);
#1028=FACE_BOUND('',#966,.T.);
#1029=FACE_BOUND('',#967,.T.);
#1030=FACE_BOUND('',#968,.T.);
#1031=FACE_BOUND('',#969,.T.);
#1032=FACE_BOUND('',#970,.T.);
#1033=FACE_BOUND('',#971,.T.);
#1034=FACE_BOUND('',#972,.T.);
#1035=FACE_BOUND('',#973,.T.);
#1036=FACE_BOUND('',#974,.T.);
#1037=FACE_BOUND('',#975,.T.);
#1038=FACE_BOUND('',#976,.T.);
#1039=FACE_BOUND('',#977,.T.);
#1040=PLANE('',#1191);
#1041=PLANE('',#1192);
#1042=PLANE('',#1193);
#1043=PLANE('',#1194);
#1044=PLANE('',#1195);
#1045=PLANE('',#1196);
#1046=PLANE('',#1197);
#1047=PLANE('',#1198);
#1048=PLANE('',#1199);
#1049=PLANE('',#1200);
#1050=PLANE('',#1201);
#1051=PLANE('',#1202);
#1052=PLANE('',#1203);
#1053=PLANE('',#1204);
#1054=PLANE('',#1205);
#1055=PLANE('',#1206);
#1056=PLANE('',#1207);
#1057=PLANE('',#1208);
#1058=PLANE('',#1209);
#1059=PLANE('',#1210);
#1060=PLANE('',#1211);
#1061=PLANE('',#1212);
#1062=PLANE('',#1214);
#1063=PLANE('',#1215);
#1064=PLANE('',#1216);
#1065=PLANE('',#1217);
#1066=PLANE('',#1218);
#1067=PLANE('',#1219);
#1068=PLANE('',#1220);
#1069=PLANE('',#1221);
#1070=PLANE('',#1222);
#1071=PLANE('',#1223);
#1072=PLANE('',#1224);
#1073=PLANE('',#1225);
#1074=PLANE('',#1226);
#1075=PLANE('',#1227);
#1076=PLANE('',#1229);
#1077=PLANE('',#1230);
#1078=PLANE('',#1231);
#1079=PLANE('',#1234);
#1080=PLANE('',#1237);
#1081=PLANE('',#1238);
#1082=PLANE('',#1239);
#1083=PLANE('',#1240);
#1084=PLANE('',#1245);
#1085=PLANE('',#1246);
#1086=PLANE('',#1248);
#1087=PLANE('',#1251);
#1088=PLANE('',#1252);
#1089=PLANE('',#1253);
#1090=PLANE('',#1254);
#1091=PLANE('',#1255);
#1092=PLANE('',#1257);
#1093=PLANE('',#1258);
#1094=ADVANCED_FACE('',(#978,#979,#980),#1040,.T.);
#1095=ADVANCED_FACE('',(#981,#982,#983),#1041,.F.);
#1096=ADVANCED_FACE('',(#984),#1042,.F.);
#1097=ADVANCED_FACE('',(#985),#1043,.F.);
#1098=ADVANCED_FACE('',(#986),#1044,.F.);
#1099=ADVANCED_FACE('',(#987),#1045,.F.);
#1100=ADVANCED_FACE('',(#988),#1046,.F.);
#1101=ADVANCED_FACE('',(#989),#1047,.T.);
#1102=ADVANCED_FACE('',(#990),#1048,.T.);
#1103=ADVANCED_FACE('',(#991),#1049,.T.);
#1104=ADVANCED_FACE('',(#992),#1050,.T.);
#1105=ADVANCED_FACE('',(#993),#1051,.T.);
#1106=ADVANCED_FACE('',(#994),#1052,.T.);
#1107=ADVANCED_FACE('',(#995),#1053,.T.);
#1108=ADVANCED_FACE('',(#996),#1054,.T.);
#1109=ADVANCED_FACE('',(#997),#1055,.F.);
#1110=ADVANCED_FACE('',(#998),#1056,.T.);
#1111=ADVANCED_FACE('',(#999),#1057,.T.);
#1112=ADVANCED_FACE('',(#1000),#1058,.T.);
#1113=ADVANCED_FACE('',(#1001),#1059,.T.);
#1114=ADVANCED_FACE('',(#1002),#1060,.T.);
#1115=ADVANCED_FACE('',(#1003),#1061,.T.);
#1116=ADVANCED_FACE('',(#1004),#1062,.F.);
#1117=ADVANCED_FACE('',(#1005),#1063,.F.);
#1118=ADVANCED_FACE('',(#1006),#1064,.T.);
#1119=ADVANCED_FACE('',(#1007),#1065,.F.);
#1120=ADVANCED_FACE('',(#1008),#1066,.F.);
#1121=ADVANCED_FACE('',(#1009),#1067,.F.);
#1122=ADVANCED_FACE('',(#1010),#1068,.F.);
#1123=ADVANCED_FACE('',(#1011),#1069,.F.);
#1124=ADVANCED_FACE('',(#1012),#1070,.F.);
#1125=ADVANCED_FACE('',(#1013),#1071,.F.);
#1126=ADVANCED_FACE('',(#1014),#1072,.F.);
#1127=ADVANCED_FACE('',(#1015),#1073,.T.);
#1128=ADVANCED_FACE('',(#1016),#1074,.T.);
#1129=ADVANCED_FACE('',(#1017),#1075,.T.);
#1130=ADVANCED_FACE('',(#1018),#1076,.F.);
#1131=ADVANCED_FACE('',(#1019),#1077,.F.);
#1132=ADVANCED_FACE('',(#1020),#1078,.T.);
#1133=ADVANCED_FACE('',(#1021),#1079,.F.);
#1134=ADVANCED_FACE('',(#1022),#1080,.F.);
#1135=ADVANCED_FACE('',(#1023),#1081,.F.);
#1136=ADVANCED_FACE('',(#1024),#1082,.F.);
#1137=ADVANCED_FACE('',(#1025),#1083,.F.);
#1138=ADVANCED_FACE('',(#1026),#18,.T.);
#1139=ADVANCED_FACE('',(#1027),#19,.T.);
#1140=ADVANCED_FACE('',(#1028),#1084,.F.);
#1141=ADVANCED_FACE('',(#1029),#1085,.F.);
#1142=ADVANCED_FACE('',(#1030),#1086,.F.);
#1143=ADVANCED_FACE('',(#1031),#20,.F.);
#1144=ADVANCED_FACE('',(#1032),#1087,.F.);
#1145=ADVANCED_FACE('',(#1033),#1088,.F.);
#1146=ADVANCED_FACE('',(#1034),#1089,.F.);
#1147=ADVANCED_FACE('',(#1035),#1090,.F.);
#1148=ADVANCED_FACE('',(#1036),#1091,.F.);
#1149=ADVANCED_FACE('',(#1037),#21,.F.);
#1150=ADVANCED_FACE('',(#1038),#1092,.F.);
#1151=ADVANCED_FACE('',(#1039),#1093,.T.);
#1152=CLOSED_SHELL('',(#1094,#1095,#1096,#1097,#1098,#1099,#1100,#1101,
#1102,#1103,#1104,#1105,#1106,#1107,#1108,#1109,#1110,#1111,#1112,#1113,
#1114,#1115));
#1153=CLOSED_SHELL('',(#1116,#1117,#1118,#1119,#1120,#1121,#1122,#1123,
#1124,#1125,#1126,#1127,#1128,#1129));
#1154=CLOSED_SHELL('',(#1130,#1131,#1132,#1133,#1134,#1135,#1136,#1137,
#1138,#1139,#1140,#1141,#1142,#1143,#1144,#1145,#1146,#1147,#1148,#1149,
#1150,#1151));
#1155=STYLED_ITEM('',(#1158),#1179);
#1156=STYLED_ITEM('',(#1159),#1180);
#1157=STYLED_ITEM('',(#1160),#1181);
#1158=PRESENTATION_STYLE_ASSIGNMENT((#1161));
#1159=PRESENTATION_STYLE_ASSIGNMENT((#1162));
#1160=PRESENTATION_STYLE_ASSIGNMENT((#1163));
#1161=SURFACE_STYLE_USAGE(.BOTH.,#1164);
#1162=SURFACE_STYLE_USAGE(.BOTH.,#1165);
#1163=SURFACE_STYLE_USAGE(.BOTH.,#1166);
#1164=SURFACE_SIDE_STYLE('',(#1167));
#1165=SURFACE_SIDE_STYLE('',(#1168));
#1166=SURFACE_SIDE_STYLE('',(#1169));
#1167=SURFACE_STYLE_FILL_AREA(#1170);
#1168=SURFACE_STYLE_FILL_AREA(#1171);
#1169=SURFACE_STYLE_FILL_AREA(#1172);
#1170=FILL_AREA_STYLE('',(#1173));
#1171=FILL_AREA_STYLE('',(#1174));
#1172=FILL_AREA_STYLE('',(#1175));
#1173=FILL_AREA_STYLE_COLOUR('',#1176);
#1174=FILL_AREA_STYLE_COLOUR('',#1177);
#1175=FILL_AREA_STYLE_COLOUR('',#1178);
#1176=COLOUR_RGB('',0.0549019612371922,0.0549019612371922,0.0549019612371922);
#1177=COLOUR_RGB('',0.831372559070587,0.701960802078247,0.176470592617989);
#1178=COLOUR_RGB('',0.670588254928589,0.670588254928589,0.670588254928589);
#1179=MANIFOLD_SOLID_BREP('TSM-102-01-SV_body',#1152);
#1180=MANIFOLD_SOLID_BREP('T-1S6-16-L(-01-2-SV)',#1153);
#1181=MANIFOLD_SOLID_BREP('T-1S6-16-L(-01-2-SV)2',#1154);
#1182=SHAPE_DEFINITION_REPRESENTATION(#1885,#1186);
#1183=SHAPE_DEFINITION_REPRESENTATION(#1886,#1187);
#1184=SHAPE_DEFINITION_REPRESENTATION(#1888,#1188);
#1185=SHAPE_DEFINITION_REPRESENTATION(#1890,#1189);
#1186=SHAPE_REPRESENTATION('TSM-102-01-L-SV',(#1190,#1213,#1228,#1259),
#1871);
#1187=SHAPE_REPRESENTATION('TSM-102-01-SV_body',(#1190),#1872);
#1188=SHAPE_REPRESENTATION('T-1S6-16-L(-01-2-SV)',(#1190),#1873);
#1189=SHAPE_REPRESENTATION('T-1S6-16-L(-01-2-SV)2',(#1190),#1874);
#1190=AXIS2_PLACEMENT_3D('',#1548,#1260,#1261);
#1191=AXIS2_PLACEMENT_3D('',#1549,#1262,#1263);
#1192=AXIS2_PLACEMENT_3D('',#1590,#1284,#1285);
#1193=AXIS2_PLACEMENT_3D('',#1631,#1306,#1307);
#1194=AXIS2_PLACEMENT_3D('',#1634,#1310,#1311);
#1195=AXIS2_PLACEMENT_3D('',#1637,#1314,#1315);
#1196=AXIS2_PLACEMENT_3D('',#1640,#1318,#1319);
#1197=AXIS2_PLACEMENT_3D('',#1643,#1322,#1323);
#1198=AXIS2_PLACEMENT_3D('',#1644,#1324,#1325);
#1199=AXIS2_PLACEMENT_3D('',#1647,#1328,#1329);
#1200=AXIS2_PLACEMENT_3D('',#1649,#1331,#1332);
#1201=AXIS2_PLACEMENT_3D('',#1651,#1334,#1335);
#1202=AXIS2_PLACEMENT_3D('',#1654,#1338,#1339);
#1203=AXIS2_PLACEMENT_3D('',#1656,#1341,#1342);
#1204=AXIS2_PLACEMENT_3D('',#1658,#1344,#1345);
#1205=AXIS2_PLACEMENT_3D('',#1659,#1346,#1347);
#1206=AXIS2_PLACEMENT_3D('',#1660,#1348,#1349);
#1207=AXIS2_PLACEMENT_3D('',#1661,#1350,#1351);
#1208=AXIS2_PLACEMENT_3D('',#1663,#1353,#1354);
#1209=AXIS2_PLACEMENT_3D('',#1665,#1356,#1357);
#1210=AXIS2_PLACEMENT_3D('',#1666,#1358,#1359);
#1211=AXIS2_PLACEMENT_3D('',#1668,#1361,#1362);
#1212=AXIS2_PLACEMENT_3D('',#1670,#1364,#1365);
#1213=AXIS2_PLACEMENT_3D('',#1671,#1366,#1367);
#1214=AXIS2_PLACEMENT_3D('',#1672,#1368,#1369);
#1215=AXIS2_PLACEMENT_3D('',#1681,#1374,#1375);
#1216=AXIS2_PLACEMENT_3D('',#1690,#1380,#1381);
#1217=AXIS2_PLACEMENT_3D('',#1701,#1388,#1389);
#1218=AXIS2_PLACEMENT_3D('',#1712,#1396,#1397);
#1219=AXIS2_PLACEMENT_3D('',#1718,#1401,#1402);
#1220=AXIS2_PLACEMENT_3D('',#1724,#1406,#1407);
#1221=AXIS2_PLACEMENT_3D('',#1730,#1411,#1412);
#1222=AXIS2_PLACEMENT_3D('',#1736,#1416,#1417);
#1223=AXIS2_PLACEMENT_3D('',#1738,#1419,#1420);
#1224=AXIS2_PLACEMENT_3D('',#1740,#1422,#1423);
#1225=AXIS2_PLACEMENT_3D('',#1743,#1426,#1427);
#1226=AXIS2_PLACEMENT_3D('',#1744,#1428,#1429);
#1227=AXIS2_PLACEMENT_3D('',#1745,#1430,#1431);
#1228=AXIS2_PLACEMENT_3D('',#1746,#1432,#1433);
#1229=AXIS2_PLACEMENT_3D('',#1747,#1434,#1435);
#1230=AXIS2_PLACEMENT_3D('',#1756,#1440,#1441);
#1231=AXIS2_PLACEMENT_3D('',#1765,#1446,#1447);
#1232=AXIS2_PLACEMENT_3D('',#1771,#1451,#1452);
#1233=AXIS2_PLACEMENT_3D('',#1779,#1456,#1457);
#1234=AXIS2_PLACEMENT_3D('',#1784,#1460,#1461);
#1235=AXIS2_PLACEMENT_3D('',#1790,#1465,#1466);
#1236=AXIS2_PLACEMENT_3D('',#1798,#1470,#1471);
#1237=AXIS2_PLACEMENT_3D('',#1803,#1474,#1475);
#1238=AXIS2_PLACEMENT_3D('',#1809,#1479,#1480);
#1239=AXIS2_PLACEMENT_3D('',#1815,#1484,#1485);
#1240=AXIS2_PLACEMENT_3D('',#1821,#1489,#1490);
#1241=AXIS2_PLACEMENT_3D('',#1827,#1494,#1495);
#1242=AXIS2_PLACEMENT_3D('',#1828,#1496,#1497);
#1243=AXIS2_PLACEMENT_3D('',#1831,#1499,#1500);
#1244=AXIS2_PLACEMENT_3D('',#1832,#1501,#1502);
#1245=AXIS2_PLACEMENT_3D('',#1835,#1504,#1505);
#1246=AXIS2_PLACEMENT_3D('',#1839,#1508,#1509);
#1247=AXIS2_PLACEMENT_3D('',#1840,#1510,#1511);
#1248=AXIS2_PLACEMENT_3D('',#1846,#1515,#1516);
#1249=AXIS2_PLACEMENT_3D('',#1848,#1518,#1519);
#1250=AXIS2_PLACEMENT_3D('',#1849,#1520,#1521);
#1251=AXIS2_PLACEMENT_3D('',#1852,#1523,#1524);
#1252=AXIS2_PLACEMENT_3D('',#1856,#1527,#1528);
#1253=AXIS2_PLACEMENT_3D('',#1860,#1531,#1532);
#1254=AXIS2_PLACEMENT_3D('',#1862,#1534,#1535);
#1255=AXIS2_PLACEMENT_3D('',#1864,#1537,#1538);
#1256=AXIS2_PLACEMENT_3D('',#1866,#1540,#1541);
#1257=AXIS2_PLACEMENT_3D('',#1867,#1542,#1543);
#1258=AXIS2_PLACEMENT_3D('',#1868,#1544,#1545);
#1259=AXIS2_PLACEMENT_3D('',#1869,#1546,#1547);
#1260=DIRECTION('',(0.,0.,1.));
#1261=DIRECTION('',(1.,0.,0.));
#1262=DIRECTION('',(0.,1.,0.));
#1263=DIRECTION('',(0.,0.,1.));
#1264=DIRECTION('',(0.,0.,1.));
#1265=DIRECTION('',(-1.,0.,0.));
#1266=DIRECTION('',(0.,0.,-1.));
#1267=DIRECTION('',(1.,0.,0.));
#1268=DIRECTION('',(0.,0.,1.));
#1269=DIRECTION('',(-1.,0.,0.));
#1270=DIRECTION('',(0.,0.,-1.));
#1271=DIRECTION('',(1.,0.,0.));
#1272=DIRECTION('',(1.,0.,0.));
#1273=DIRECTION('',(0.500000000000002,0.,0.866025403784437));
#1274=DIRECTION('',(-1.,0.,0.));
#1275=DIRECTION('',(0.,0.,1.));
#1276=DIRECTION('',(1.,0.,0.));
#1277=DIRECTION('',(-0.5,0.,0.866025403784439));
#1278=DIRECTION('',(-1.,0.,0.));
#1279=DIRECTION('',(-0.5,0.,-0.866025403784439));
#1280=DIRECTION('',(1.,0.,0.));
#1281=DIRECTION('',(0.,0.,-1.));
#1282=DIRECTION('',(-1.,0.,0.));
#1283=DIRECTION('',(0.499999999999999,0.,-0.866025403784439));
#1284=DIRECTION('',(0.,1.,0.));
#1285=DIRECTION('',(0.,0.,1.));
#1286=DIRECTION('',(0.,0.,1.));
#1287=DIRECTION('',(1.,0.,0.));
#1288=DIRECTION('',(0.,0.,-1.));
#1289=DIRECTION('',(-1.,0.,0.));
#1290=DIRECTION('',(0.,0.,1.));
#1291=DIRECTION('',(1.,0.,0.));
#1292=DIRECTION('',(0.,0.,-1.));
#1293=DIRECTION('',(-1.,0.,0.));
#1294=DIRECTION('',(0.500000000000002,0.,0.866025403784437));
#1295=DIRECTION('',(1.,0.,0.));
#1296=DIRECTION('',(0.499999999999999,0.,-0.866025403784439));
#1297=DIRECTION('',(-1.,0.,0.));
#1298=DIRECTION('',(0.,0.,-1.));
#1299=DIRECTION('',(1.,0.,0.));
#1300=DIRECTION('',(-0.5,0.,-0.866025403784439));
#1301=DIRECTION('',(-1.,0.,0.));
#1302=DIRECTION('',(-0.5,0.,0.866025403784439));
#1303=DIRECTION('',(1.,0.,0.));
#1304=DIRECTION('',(0.,0.,1.));
#1305=DIRECTION('',(-1.,0.,0.));
#1306=DIRECTION('',(0.,0.,1.));
#1307=DIRECTION('',(1.,0.,0.));
#1308=DIRECTION('',(0.,-1.,0.));
#1309=DIRECTION('',(0.,-1.,0.));
#1310=DIRECTION('',(0.,0.,1.));
#1311=DIRECTION('',(1.,0.,0.));
#1312=DIRECTION('',(0.,-1.,0.));
#1313=DIRECTION('',(0.,-1.,0.));
#1314=DIRECTION('',(0.,0.,-1.));
#1315=DIRECTION('',(-1.,0.,0.));
#1316=DIRECTION('',(0.,-1.,0.));
#1317=DIRECTION('',(0.,-1.,0.));
#1318=DIRECTION('',(0.,0.,-1.));
#1319=DIRECTION('',(-1.,0.,0.));
#1320=DIRECTION('',(0.,-1.,0.));
#1321=DIRECTION('',(0.,-1.,0.));
#1322=DIRECTION('',(1.,0.,0.));
#1323=DIRECTION('',(0.,0.,-1.));
#1324=DIRECTION('',(1.,0.,0.));
#1325=DIRECTION('',(0.,0.,-1.));
#1326=DIRECTION('',(0.,-1.,0.));
#1327=DIRECTION('',(0.,-1.,0.));
#1328=DIRECTION('',(0.,0.,1.));
#1329=DIRECTION('',(1.,0.,0.));
#1330=DIRECTION('',(0.,-1.,0.));
#1331=DIRECTION('',(-1.,0.,0.));
#1332=DIRECTION('',(0.,0.,1.));
#1333=DIRECTION('',(0.,-1.,0.));
#1334=DIRECTION('',(1.,0.,0.));
#1335=DIRECTION('',(0.,0.,-1.));
#1336=DIRECTION('',(0.,-1.,0.));
#1337=DIRECTION('',(0.,-1.,0.));
#1338=DIRECTION('',(0.,0.,1.));
#1339=DIRECTION('',(1.,0.,0.));
#1340=DIRECTION('',(0.,-1.,0.));
#1341=DIRECTION('',(-1.,0.,0.));
#1342=DIRECTION('',(0.,0.,1.));
#1343=DIRECTION('',(0.,-1.,0.));
#1344=DIRECTION('',(0.,0.,-1.));
#1345=DIRECTION('',(-1.,0.,0.));
#1346=DIRECTION('',(0.,0.,-1.));
#1347=DIRECTION('',(-1.,0.,0.));
#1348=DIRECTION('',(-1.,0.,0.));
#1349=DIRECTION('',(0.,0.,1.));
#1350=DIRECTION('',(0.866025403784439,0.,0.5));
#1351=DIRECTION('',(0.5,0.,-0.866025403784439));
#1352=DIRECTION('',(0.,-1.,0.));
#1353=DIRECTION('',(-0.866025403784439,0.,0.5));
#1354=DIRECTION('',(0.5,0.,0.866025403784439));
#1355=DIRECTION('',(0.,-1.,0.));
#1356=DIRECTION('',(0.,0.,1.));
#1357=DIRECTION('',(1.,0.,0.));
#1358=DIRECTION('',(0.866025403784437,0.,-0.500000000000002));
#1359=DIRECTION('',(-0.500000000000002,0.,-0.866025403784438));
#1360=DIRECTION('',(0.,-1.,0.));
#1361=DIRECTION('',(0.,0.,-1.));
#1362=DIRECTION('',(-1.,0.,0.));
#1363=DIRECTION('',(0.,-1.,0.));
#1364=DIRECTION('',(-0.866025403784439,0.,-0.499999999999999));
#1365=DIRECTION('',(-0.499999999999999,0.,0.866025403784439));
#1366=DIRECTION('',(0.,0.,1.));
#1367=DIRECTION('',(1.,0.,0.));
#1368=DIRECTION('',(0.,0.,-1.));
#1369=DIRECTION('',(-1.,0.,0.));
#1370=DIRECTION('',(-1.,0.,0.));
#1371=DIRECTION('',(0.,-1.,0.));
#1372=DIRECTION('',(-1.,0.,0.));
#1373=DIRECTION('',(0.,-1.,0.));
#1374=DIRECTION('',(0.,0.,1.));
#1375=DIRECTION('',(1.,0.,0.));
#1376=DIRECTION('',(1.,0.,0.));
#1377=DIRECTION('',(0.,1.,0.));
#1378=DIRECTION('',(-1.,0.,0.));
#1379=DIRECTION('',(0.,1.,0.));
#1380=DIRECTION('',(1.,0.,0.));
#1381=DIRECTION('',(0.,0.,-1.));
#1382=DIRECTION('',(0.,-8.11017373119078E-17,-1.));
#1383=DIRECTION('',(0.,0.,1.));
#1384=DIRECTION('',(0.,1.,1.91127424929869E-17));
#1385=DIRECTION('',(0.,0.,1.));
#1386=DIRECTION('',(0.,-1.,0.));
#1387=DIRECTION('',(0.,0.,1.));
#1388=DIRECTION('',(1.,0.,0.));
#1389=DIRECTION('',(0.,0.,-1.));
#1390=DIRECTION('',(0.,-8.11017373119078E-17,-1.));
#1391=DIRECTION('',(0.,0.,1.));
#1392=DIRECTION('',(0.,-1.,0.));
#1393=DIRECTION('',(0.,0.,1.));
#1394=DIRECTION('',(0.,1.,1.91127424929869E-17));
#1395=DIRECTION('',(0.,0.,1.));
#1396=DIRECTION('',(0.,-1.91127424929869E-17,1.));
#1397=DIRECTION('',(0.,-1.,-1.91127424929869E-17));
#1398=DIRECTION('',(0.,1.,1.91127424929869E-17));
#1399=DIRECTION('',(-1.,0.,0.));
#1400=DIRECTION('',(-1.,0.,0.));
#1401=DIRECTION('',(0.,-1.91127424929869E-17,1.));
#1402=DIRECTION('',(0.,-1.,-1.91127424929869E-17));
#1403=DIRECTION('',(0.,-1.,-1.91127424929869E-17));
#1404=DIRECTION('',(-1.,0.,0.));
#1405=DIRECTION('',(-1.,0.,0.));
#1406=DIRECTION('',(0.,0.,-1.));
#1407=DIRECTION('',(-1.,0.,0.));
#1408=DIRECTION('',(0.,-1.,0.));
#1409=DIRECTION('',(-1.,0.,0.));
#1410=DIRECTION('',(1.,0.,0.));
#1411=DIRECTION('',(0.,0.,-1.));
#1412=DIRECTION('',(-1.,0.,0.));
#1413=DIRECTION('',(0.,1.,0.));
#1414=DIRECTION('',(1.,0.,0.));
#1415=DIRECTION('',(-1.,0.,0.));
#1416=DIRECTION('',(0.,-1.,0.));
#1417=DIRECTION('',(0.,0.,-1.));
#1418=DIRECTION('',(0.,0.,1.));
#1419=DIRECTION('',(0.,-1.,0.));
#1420=DIRECTION('',(0.,0.,-1.));
#1421=DIRECTION('',(0.,0.,-1.));
#1422=DIRECTION('',(0.,-1.,0.));
#1423=DIRECTION('',(0.,0.,-1.));
#1424=DIRECTION('',(0.,0.,-1.));
#1425=DIRECTION('',(0.,0.,1.));
#1426=DIRECTION('',(1.,0.,0.));
#1427=DIRECTION('',(0.,0.,-1.));
#1428=DIRECTION('',(-1.,0.,0.));
#1429=DIRECTION('',(0.,0.,1.));
#1430=DIRECTION('',(0.,-1.,8.11017373119078E-17));
#1431=DIRECTION('',(0.,-8.11017373119078E-17,-1.));
#1432=DIRECTION('',(0.,0.,1.));
#1433=DIRECTION('',(1.,0.,0.));
#1434=DIRECTION('',(0.,0.,-1.));
#1435=DIRECTION('',(-1.,0.,0.));
#1436=DIRECTION('',(1.,0.,0.));
#1437=DIRECTION('',(0.,-1.,0.));
#1438=DIRECTION('',(-1.,0.,0.));
#1439=DIRECTION('',(0.,-1.,0.));
#1440=DIRECTION('',(0.,0.,1.));
#1441=DIRECTION('',(1.,0.,0.));
#1442=DIRECTION('',(-1.,0.,0.));
#1443=DIRECTION('',(0.,1.,0.));
#1444=DIRECTION('',(-1.,0.,0.));
#1445=DIRECTION('',(0.,1.,0.));
#1446=DIRECTION('',(1.,0.,0.));
#1447=DIRECTION('',(0.,0.,-1.));
#1448=DIRECTION('',(0.,-8.11017373119078E-17,1.));
#1449=DIRECTION('',(0.,0.,-1.));
#1450=DIRECTION('',(0.,-1.,0.));
#1451=DIRECTION('',(1.,0.,0.));
#1452=DIRECTION('',(0.,0.,-1.));
#1453=DIRECTION('',(0.,1.79098426158059E-16,1.));
#1454=DIRECTION('',(0.,-1.,0.));
#1455=DIRECTION('',(0.,0.,-1.));
#1456=DIRECTION('',(1.,0.,0.));
#1457=DIRECTION('',(0.,0.,-1.));
#1458=DIRECTION('',(0.,1.,1.91127424929869E-17));
#1459=DIRECTION('',(0.,0.,-1.));
#1460=DIRECTION('',(1.,0.,0.));
#1461=DIRECTION('',(0.,0.,-1.));
#1462=DIRECTION('',(0.,-8.11017373119078E-17,1.));
#1463=DIRECTION('',(0.,0.,-1.));
#1464=DIRECTION('',(0.,1.,1.91127424929869E-17));
#1465=DIRECTION('',(1.,0.,0.));
#1466=DIRECTION('',(0.,0.,-1.));
#1467=DIRECTION('',(0.,1.79098426158059E-16,1.));
#1468=DIRECTION('',(0.,1.,0.));
#1469=DIRECTION('',(0.,0.,-1.));
#1470=DIRECTION('',(1.,0.,0.));
#1471=DIRECTION('',(0.,0.,-1.));
#1472=DIRECTION('',(0.,-1.,0.));
#1473=DIRECTION('',(0.,0.,-1.));
#1474=DIRECTION('',(0.,0.,-1.));
#1475=DIRECTION('',(-1.,0.,0.));
#1476=DIRECTION('',(0.,-1.,0.));
#1477=DIRECTION('',(-1.,0.,0.));
#1478=DIRECTION('',(-1.,0.,2.43914999434309E-17));
#1479=DIRECTION('',(0.,0.,-1.));
#1480=DIRECTION('',(-1.,0.,0.));
#1481=DIRECTION('',(0.,1.,0.));
#1482=DIRECTION('',(-1.,0.,0.));
#1483=DIRECTION('',(-1.,0.,0.));
#1484=DIRECTION('',(0.,-1.91127424929869E-17,1.));
#1485=DIRECTION('',(0.,-1.,-1.91127424929869E-17));
#1486=DIRECTION('',(0.,1.,1.91127424929869E-17));
#1487=DIRECTION('',(-1.,0.,0.));
#1488=DIRECTION('',(1.,0.,0.));
#1489=DIRECTION('',(0.,-1.91127424929869E-17,1.));
#1490=DIRECTION('',(0.,-1.,-1.91127424929869E-17));
#1491=DIRECTION('',(0.,-1.,-1.91127424929869E-17));
#1492=DIRECTION('',(1.,0.,0.));
#1493=DIRECTION('',(-1.,0.,0.));
#1494=DIRECTION('',(1.,0.,0.));
#1495=DIRECTION('',(0.,0.,-1.));
#1496=DIRECTION('',(1.,0.,0.));
#1497=DIRECTION('',(0.,0.,-1.));
#1498=DIRECTION('',(1.,-2.43914999434309E-17,-1.49354861660628E-33));
#1499=DIRECTION('',(-1.,0.,0.));
#1500=DIRECTION('',(0.,0.,1.));
#1501=DIRECTION('',(-1.,0.,0.));
#1502=DIRECTION('',(0.,0.,1.));
#1503=DIRECTION('',(-1.,-2.43914999434309E-17,1.49354861660628E-33));
#1504=DIRECTION('',(0.,1.,0.));
#1505=DIRECTION('',(0.,0.,1.));
#1506=DIRECTION('',(-1.,0.,0.));
#1507=DIRECTION('',(0.,0.,1.));
#1508=DIRECTION('',(-1.,0.,0.));
#1509=DIRECTION('',(0.,0.,1.));
#1510=DIRECTION('',(-1.,0.,0.));
#1511=DIRECTION('',(0.,0.,1.));
#1512=DIRECTION('',(0.,0.,1.));
#1513=DIRECTION('',(0.,-1.,0.));
#1514=DIRECTION('',(0.,-1.79098426158059E-16,-1.));
#1515=DIRECTION('',(0.,1.,0.));
#1516=DIRECTION('',(0.,0.,1.));
#1517=DIRECTION('',(0.,0.,-1.));
#1518=DIRECTION('',(-1.,0.,0.));
#1519=DIRECTION('',(0.,0.,1.));
#1520=DIRECTION('',(1.,0.,0.));
#1521=DIRECTION('',(0.,0.,-1.));
#1522=DIRECTION('',(-1.,0.,0.));
#1523=DIRECTION('',(0.,-1.,1.79098426158059E-16));
#1524=DIRECTION('',(0.,-1.79098426158059E-16,-1.));
#1525=DIRECTION('',(0.,1.79098426158059E-16,1.));
#1526=DIRECTION('',(-1.,0.,0.));
#1527=DIRECTION('',(0.,0.,-1.));
#1528=DIRECTION('',(-1.,0.,0.));
#1529=DIRECTION('',(0.,-1.,0.));
#1530=DIRECTION('',(-1.,0.,0.));
#1531=DIRECTION('',(0.,1.,0.));
#1532=DIRECTION('',(0.,0.,1.));
#1533=DIRECTION('',(0.,0.,-1.));
#1534=DIRECTION('',(0.,0.,1.));
#1535=DIRECTION('',(1.,0.,0.));
#1536=DIRECTION('',(-1.,0.,0.));
#1537=DIRECTION('',(0.,-1.,1.79098426158059E-16));
#1538=DIRECTION('',(0.,-1.79098426158059E-16,-1.));
#1539=DIRECTION('',(-1.,0.,0.));
#1540=DIRECTION('',(-1.,0.,0.));
#1541=DIRECTION('',(0.,0.,1.));
#1542=DIRECTION('',(1.,0.,0.));
#1543=DIRECTION('',(0.,0.,-1.));
#1544=DIRECTION('',(0.,1.,8.11017373119078E-17));
#1545=DIRECTION('',(0.,-8.11017373119078E-17,1.));
#1546=DIRECTION('',(0.,0.,1.));
#1547=DIRECTION('',(1.,0.,0.));
#1548=CARTESIAN_POINT('',(0.,0.,0.));
#1549=CARTESIAN_POINT('',(0.,0.05,0.));
#1550=CARTESIAN_POINT('',(-0.0625,0.05,-0.0125));
#1551=CARTESIAN_POINT('',(-0.0625,0.05,-0.0125));
#1552=CARTESIAN_POINT('',(-0.0625,0.05,0.0125));
#1553=CARTESIAN_POINT('',(-0.0375,0.05,-0.0125));
#1554=CARTESIAN_POINT('',(-0.0375,0.05,-0.0125));
#1555=CARTESIAN_POINT('',(-0.0375,0.05,0.0125));
#1556=CARTESIAN_POINT('',(-0.0375,0.05,0.0125));
#1557=CARTESIAN_POINT('',(-0.0625,0.05,0.0125));
#1558=CARTESIAN_POINT('',(0.0375,0.05,-0.0125));
#1559=CARTESIAN_POINT('',(0.0375,0.05,-0.0125));
#1560=CARTESIAN_POINT('',(0.0375,0.05,0.0125));
#1561=CARTESIAN_POINT('',(0.0625,0.05,-0.0125));
#1562=CARTESIAN_POINT('',(0.0625,0.05,-0.0125));
#1563=CARTESIAN_POINT('',(0.0625,0.05,0.0125));
#1564=CARTESIAN_POINT('',(0.0625,0.05,0.0125));
#1565=CARTESIAN_POINT('',(0.0375,0.05,0.0125));
#1566=CARTESIAN_POINT('',(-0.00422649730810374,0.05,-0.04));
#1567=CARTESIAN_POINT('',(-0.00422649730810374,0.05,-0.04));
#1568=CARTESIAN_POINT('',(0.00422649730810373,0.05,-0.04));
#1569=CARTESIAN_POINT('',(-0.01,0.05,-0.05));
#1570=CARTESIAN_POINT('',(-0.01,0.05,-0.05));
#1571=CARTESIAN_POINT('',(0.1,0.05,-0.05));
#1572=CARTESIAN_POINT('',(-0.1,0.05,-0.05));
#1573=CARTESIAN_POINT('',(-0.1,0.05,-0.05));
#1574=CARTESIAN_POINT('',(-0.1,0.05,0.05));
#1575=CARTESIAN_POINT('',(-0.1,0.05,0.05));
#1576=CARTESIAN_POINT('',(-0.01,0.05,0.05));
#1577=CARTESIAN_POINT('',(-0.00422649730810375,0.05,0.04));
#1578=CARTESIAN_POINT('',(-0.00422649730810375,0.05,0.04));
#1579=CARTESIAN_POINT('',(0.00422649730810374,0.05,0.04));
#1580=CARTESIAN_POINT('',(0.00422649730810374,0.05,0.04));
#1581=CARTESIAN_POINT('',(0.00999999999999999,0.05,0.05));
#1582=CARTESIAN_POINT('',(0.00999999999999999,0.05,0.05));
#1583=CARTESIAN_POINT('',(-0.1,0.05,0.05));
#1584=CARTESIAN_POINT('',(0.1,0.05,0.05));
#1585=CARTESIAN_POINT('',(0.1,0.05,0.05));
#1586=CARTESIAN_POINT('',(0.1,0.05,-0.05));
#1587=CARTESIAN_POINT('',(0.1,0.05,-0.05));
#1588=CARTESIAN_POINT('',(0.00999999999999996,0.05,-0.05));
#1589=CARTESIAN_POINT('',(0.00422649730810373,0.05,-0.04));
#1590=CARTESIAN_POINT('',(0.,-0.05,0.));
#1591=CARTESIAN_POINT('',(-0.0625,-0.05,-0.0125));
#1592=CARTESIAN_POINT('',(-0.0625,-0.05,-0.0125));
#1593=CARTESIAN_POINT('',(-0.0625,-0.05,0.0125));
#1594=CARTESIAN_POINT('',(-0.0625,-0.05,0.0125));
#1595=CARTESIAN_POINT('',(-0.0375,-0.05,0.0125));
#1596=CARTESIAN_POINT('',(-0.0375,-0.05,0.0125));
#1597=CARTESIAN_POINT('',(-0.0375,-0.05,-0.0125));
#1598=CARTESIAN_POINT('',(-0.0375,-0.05,-0.0125));
#1599=CARTESIAN_POINT('',(0.0375,-0.05,-0.0125));
#1600=CARTESIAN_POINT('',(0.0375,-0.05,-0.0125));
#1601=CARTESIAN_POINT('',(0.0375,-0.05,0.0125));
#1602=CARTESIAN_POINT('',(0.0375,-0.05,0.0125));
#1603=CARTESIAN_POINT('',(0.0625,-0.05,0.0125));
#1604=CARTESIAN_POINT('',(0.0625,-0.05,0.0125));
#1605=CARTESIAN_POINT('',(0.0625,-0.05,-0.0125));
#1606=CARTESIAN_POINT('',(0.0625,-0.05,-0.0125));
#1607=CARTESIAN_POINT('',(-0.01,-0.05,-0.05));
#1608=CARTESIAN_POINT('',(-0.01,-0.05,-0.05));
#1609=CARTESIAN_POINT('',(-0.00422649730810374,-0.05,-0.04));
#1610=CARTESIAN_POINT('',(-0.00422649730810374,-0.05,-0.04));
#1611=CARTESIAN_POINT('',(0.00422649730810373,-0.05,-0.04));
#1612=CARTESIAN_POINT('',(0.00422649730810373,-0.05,-0.04));
#1613=CARTESIAN_POINT('',(0.00999999999999997,-0.05,-0.05));
#1614=CARTESIAN_POINT('',(0.1,-0.05,-0.05));
#1615=CARTESIAN_POINT('',(0.1,-0.05,-0.05));
#1616=CARTESIAN_POINT('',(0.1,-0.05,0.05));
#1617=CARTESIAN_POINT('',(0.1,-0.05,0.05));
#1618=CARTESIAN_POINT('',(-0.1,-0.05,0.05));
#1619=CARTESIAN_POINT('',(0.00999999999999999,-0.05,0.05));
#1620=CARTESIAN_POINT('',(0.00999999999999999,-0.05,0.05));
#1621=CARTESIAN_POINT('',(0.00422649730810374,-0.05,0.04));
#1622=CARTESIAN_POINT('',(0.00422649730810374,-0.05,0.04));
#1623=CARTESIAN_POINT('',(-0.00422649730810375,-0.05,0.04));
#1624=CARTESIAN_POINT('',(-0.00422649730810375,-0.05,0.04));
#1625=CARTESIAN_POINT('',(-0.01,-0.05,0.05));
#1626=CARTESIAN_POINT('',(-0.1,-0.05,0.05));
#1627=CARTESIAN_POINT('',(-0.1,-0.05,0.05));
#1628=CARTESIAN_POINT('',(-0.1,-0.05,-0.05));
#1629=CARTESIAN_POINT('',(-0.1,-0.05,-0.05));
#1630=CARTESIAN_POINT('',(0.1,-0.05,-0.05));
#1631=CARTESIAN_POINT('',(0.1,0.05,-0.05));
#1632=CARTESIAN_POINT('',(-0.01,0.05,-0.05));
#1633=CARTESIAN_POINT('',(-0.1,0.05,-0.05));
#1634=CARTESIAN_POINT('',(0.1,0.05,-0.05));
#1635=CARTESIAN_POINT('',(0.00999999999999997,0.05,-0.05));
#1636=CARTESIAN_POINT('',(0.1,0.05,-0.05));
#1637=CARTESIAN_POINT('',(-0.1,0.05,0.05));
#1638=CARTESIAN_POINT('',(-0.01,0.05,0.05));
#1639=CARTESIAN_POINT('',(-0.1,0.05,0.05));
#1640=CARTESIAN_POINT('',(-0.1,0.05,0.05));
#1641=CARTESIAN_POINT('',(0.00999999999999999,0.05,0.05));
#1642=CARTESIAN_POINT('',(0.1,0.05,0.05));
#1643=CARTESIAN_POINT('',(-0.1,0.05,-0.05));
#1644=CARTESIAN_POINT('',(0.0375,0.05,-0.0125));
#1645=CARTESIAN_POINT('',(0.0375,0.05,-0.0125));
#1646=CARTESIAN_POINT('',(0.0375,0.05,0.0125));
#1647=CARTESIAN_POINT('',(0.0625,0.05,-0.0125));
#1648=CARTESIAN_POINT('',(0.0625,0.05,-0.0125));
#1649=CARTESIAN_POINT('',(0.0625,0.05,0.0125));
#1650=CARTESIAN_POINT('',(0.0625,0.05,0.0125));
#1651=CARTESIAN_POINT('',(-0.0625,0.05,-0.0125));
#1652=CARTESIAN_POINT('',(-0.0625,0.05,-0.0125));
#1653=CARTESIAN_POINT('',(-0.0625,0.05,0.0125));
#1654=CARTESIAN_POINT('',(-0.0375,0.05,-0.0125));
#1655=CARTESIAN_POINT('',(-0.0375,0.05,-0.0125));
#1656=CARTESIAN_POINT('',(-0.0375,0.05,0.0125));
#1657=CARTESIAN_POINT('',(-0.0375,0.05,0.0125));
#1658=CARTESIAN_POINT('',(0.0375,0.05,0.0125));
#1659=CARTESIAN_POINT('',(-0.0625,0.05,0.0125));
#1660=CARTESIAN_POINT('',(0.1,0.05,0.05));
#1661=CARTESIAN_POINT('',(-0.00422649730810375,0.05,0.04));
#1662=CARTESIAN_POINT('',(-0.00422649730810375,0.05,0.04));
#1663=CARTESIAN_POINT('',(0.00999999999999999,0.05,0.05));
#1664=CARTESIAN_POINT('',(0.00422649730810374,0.05,0.04));
#1665=CARTESIAN_POINT('',(0.00422649730810374,0.05,0.04));
#1666=CARTESIAN_POINT('',(-0.01,0.05,-0.05));
#1667=CARTESIAN_POINT('',(-0.00422649730810374,0.05,-0.04));
#1668=CARTESIAN_POINT('',(-0.00422649730810374,0.05,-0.04));
#1669=CARTESIAN_POINT('',(0.00422649730810373,0.05,-0.04));
#1670=CARTESIAN_POINT('',(0.00422649730810373,0.05,-0.04));
#1671=CARTESIAN_POINT('',(0.,0.05,6.12323399573677E-18));
#1672=CARTESIAN_POINT('',(0.0625,0.105,0.0145));
#1673=CARTESIAN_POINT('',(0.0625,0.101999999999998,0.0145));
#1674=CARTESIAN_POINT('',(0.0625,0.101999999999998,0.0145));
#1675=CARTESIAN_POINT('',(-0.0625,0.101999999999998,0.0145));
#1676=CARTESIAN_POINT('',(0.0625,0.105,0.0145));
#1677=CARTESIAN_POINT('',(0.0625,0.105,0.0145));
#1678=CARTESIAN_POINT('',(0.0625,0.105,0.0145));
#1679=CARTESIAN_POINT('',(-0.0625,0.105,0.0145));
#1680=CARTESIAN_POINT('',(-0.0625,0.105,0.0145));
#1681=CARTESIAN_POINT('',(0.0625,0.1,-0.0145));
#1682=CARTESIAN_POINT('',(0.0625,0.101999999999998,-0.0145));
#1683=CARTESIAN_POINT('',(-0.0625,0.101999999999998,-0.0145));
#1684=CARTESIAN_POINT('',(0.0625,0.101999999999998,-0.0145));
#1685=CARTESIAN_POINT('',(-0.0625,0.1,-0.0145));
#1686=CARTESIAN_POINT('',(-0.0625,0.105,-0.0145));
#1687=CARTESIAN_POINT('',(0.0625,0.105,-0.0145));
#1688=CARTESIAN_POINT('',(0.0625,0.105,-0.0145));
#1689=CARTESIAN_POINT('',(0.0625,0.1,-0.0145));
#1690=CARTESIAN_POINT('',(0.0625,0.,0.));
#1691=CARTESIAN_POINT('',(0.0625,0.101999999999998,-8.27237720581447E-18));
#1692=CARTESIAN_POINT('',(0.0625,0.105,-0.0145));
#1693=CARTESIAN_POINT('',(0.0625,0.105,-0.0125));
#1694=CARTESIAN_POINT('',(0.0625,0.045,-0.0125));
#1695=CARTESIAN_POINT('',(0.0625,0.38,-0.0125));
#1696=CARTESIAN_POINT('',(0.0625,0.38,-0.0125));
#1697=CARTESIAN_POINT('',(0.0625,0.38,0.0125));
#1698=CARTESIAN_POINT('',(0.0625,0.38,0.0125));
#1699=CARTESIAN_POINT('',(0.0625,0.105,0.0125));
#1700=CARTESIAN_POINT('',(0.0625,0.105,-0.0145));
#1701=CARTESIAN_POINT('',(-0.0625,0.,0.));
#1702=CARTESIAN_POINT('',(-0.0625,0.101999999999998,-8.27237720581447E-18));
#1703=CARTESIAN_POINT('',(-0.0625,0.105,-0.0145));
#1704=CARTESIAN_POINT('',(-0.0625,0.105,0.0125));
#1705=CARTESIAN_POINT('',(-0.0625,0.38,0.0125));
#1706=CARTESIAN_POINT('',(-0.0625,0.38,0.0125));
#1707=CARTESIAN_POINT('',(-0.0625,0.38,-0.0125));
#1708=CARTESIAN_POINT('',(-0.0625,0.38,-0.0125));
#1709=CARTESIAN_POINT('',(-0.0625,0.045,-0.0125));
#1710=CARTESIAN_POINT('',(-0.0625,0.105,-0.0125));
#1711=CARTESIAN_POINT('',(-0.0625,0.105,-0.0145));
#1712=CARTESIAN_POINT('',(0.0625,0.045,-0.0125));
#1713=CARTESIAN_POINT('',(-0.0375,0.045,-0.0125));
#1714=CARTESIAN_POINT('',(-0.0375,0.105,-0.0125));
#1715=CARTESIAN_POINT('',(-0.0375,0.38,-0.0125));
#1716=CARTESIAN_POINT('',(0.0625,0.105,-0.0125));
#1717=CARTESIAN_POINT('',(0.0625,0.38,-0.0125));
#1718=CARTESIAN_POINT('',(0.0625,0.045,-0.0125));
#1719=CARTESIAN_POINT('',(0.0375,0.045,-0.0125));
#1720=CARTESIAN_POINT('',(0.0375,0.38,-0.0125));
#1721=CARTESIAN_POINT('',(0.0375,0.105,-0.0125));
#1722=CARTESIAN_POINT('',(0.0625,0.38,-0.0125));
#1723=CARTESIAN_POINT('',(0.0625,0.105,-0.0125));
#1724=CARTESIAN_POINT('',(0.0625,0.38,0.0125));
#1725=CARTESIAN_POINT('',(-0.0375,0.38,0.0125));
#1726=CARTESIAN_POINT('',(-0.0375,0.38,0.0125));
#1727=CARTESIAN_POINT('',(-0.0375,0.105,0.0125));
#1728=CARTESIAN_POINT('',(0.0625,0.38,0.0125));
#1729=CARTESIAN_POINT('',(0.0625,0.105,0.0125));
#1730=CARTESIAN_POINT('',(0.0625,0.38,0.0125));
#1731=CARTESIAN_POINT('',(0.0375,0.38,0.0125));
#1732=CARTESIAN_POINT('',(0.0375,0.105,0.0125));
#1733=CARTESIAN_POINT('',(0.0375,0.38,0.0125));
#1734=CARTESIAN_POINT('',(0.0625,0.105,0.0125));
#1735=CARTESIAN_POINT('',(0.0625,0.38,0.0125));
#1736=CARTESIAN_POINT('',(0.0625,0.38,-0.0125));
#1737=CARTESIAN_POINT('',(-0.0375,0.38,-0.0125));
#1738=CARTESIAN_POINT('',(0.0625,0.38,-0.0125));
#1739=CARTESIAN_POINT('',(0.0375,0.38,-0.0125));
#1740=CARTESIAN_POINT('',(0.0625,0.105,-0.0145));
#1741=CARTESIAN_POINT('',(0.0375,0.105,0.23));
#1742=CARTESIAN_POINT('',(-0.0375,0.105,-0.23));
#1743=CARTESIAN_POINT('',(-0.0375,0.565,-0.23));
#1744=CARTESIAN_POINT('',(0.0375,0.565,0.23));
#1745=CARTESIAN_POINT('',(50.,0.101999999999997,-20.));
#1746=CARTESIAN_POINT('',(0.,-0.05,6.12323399573677E-18));
#1747=CARTESIAN_POINT('',(0.0625,0.105,0.0145));
#1748=CARTESIAN_POINT('',(0.0625,0.101999999999998,0.0145));
#1749=CARTESIAN_POINT('',(-0.0625,0.101999999999998,0.0145));
#1750=CARTESIAN_POINT('',(0.0625,0.101999999999998,0.0145));
#1751=CARTESIAN_POINT('',(-0.0625,0.105,0.0145));
#1752=CARTESIAN_POINT('',(-0.0625,0.1,0.0145));
#1753=CARTESIAN_POINT('',(0.0625,0.1,0.0145));
#1754=CARTESIAN_POINT('',(0.0625,0.1,0.0145));
#1755=CARTESIAN_POINT('',(0.0625,0.105,0.0145));
#1756=CARTESIAN_POINT('',(0.0625,0.1,-0.0145));
#1757=CARTESIAN_POINT('',(0.0625,0.101999999999998,-0.0145));
#1758=CARTESIAN_POINT('',(0.0625,0.101999999999998,-0.0145));
#1759=CARTESIAN_POINT('',(-0.0625,0.101999999999998,-0.0145));
#1760=CARTESIAN_POINT('',(0.0625,0.1,-0.0145));
#1761=CARTESIAN_POINT('',(0.0625,0.1,-0.0145));
#1762=CARTESIAN_POINT('',(0.0625,0.1,-0.0145));
#1763=CARTESIAN_POINT('',(-0.0625,0.1,-0.0145));
#1764=CARTESIAN_POINT('',(-0.0625,0.1,-0.0145));
#1765=CARTESIAN_POINT('',(0.0625,0.,0.));
#1766=CARTESIAN_POINT('',(0.0625,0.101999999999998,8.27237720581447E-18));
#1767=CARTESIAN_POINT('',(0.0625,0.1,0.0145));
#1768=CARTESIAN_POINT('',(0.0625,0.1,0.0125));
#1769=CARTESIAN_POINT('',(0.0625,0.38,0.0125));
#1770=CARTESIAN_POINT('',(0.0625,0.045,0.0125));
#1771=CARTESIAN_POINT('',(0.0625,0.045,0.0325));
#1772=CARTESIAN_POINT('',(0.0625,0.025,0.0325));
#1773=CARTESIAN_POINT('',(0.0625,0.025,0.0325));
#1774=CARTESIAN_POINT('',(0.0625,0.025,0.104));
#1775=CARTESIAN_POINT('',(0.0625,0.025,0.104));
#1776=CARTESIAN_POINT('',(0.0625,4.26851249010041E-18,0.104));
#1777=CARTESIAN_POINT('',(0.0625,0.,0.104));
#1778=CARTESIAN_POINT('',(0.0625,-6.7076624844435E-18,0.0325));
#1779=CARTESIAN_POINT('',(0.0625,0.045,0.0325));
#1780=CARTESIAN_POINT('',(0.0625,0.045,-0.0125));
#1781=CARTESIAN_POINT('',(0.0625,0.045,-0.0125));
#1782=CARTESIAN_POINT('',(0.0625,0.1,-0.0125));
#1783=CARTESIAN_POINT('',(0.0625,0.1,0.0145));
#1784=CARTESIAN_POINT('',(-0.0625,0.,0.));
#1785=CARTESIAN_POINT('',(-0.0625,0.101999999999998,8.27237720581447E-18));
#1786=CARTESIAN_POINT('',(-0.0625,0.1,0.0145));
#1787=CARTESIAN_POINT('',(-0.0625,0.1,-0.0125));
#1788=CARTESIAN_POINT('',(-0.0625,0.045,-0.0125));
#1789=CARTESIAN_POINT('',(-0.0625,0.045,-0.0125));
#1790=CARTESIAN_POINT('',(-0.0625,0.045,-0.0325));
#1791=CARTESIAN_POINT('',(-0.0625,0.025,-0.0325));
#1792=CARTESIAN_POINT('',(-0.0625,0.025,-0.104));
#1793=CARTESIAN_POINT('',(-0.0625,0.025,-0.104));
#1794=CARTESIAN_POINT('',(-0.0625,0.,-0.104));
#1795=CARTESIAN_POINT('',(-0.0625,0.,-0.104));
#1796=CARTESIAN_POINT('',(-0.0625,0.,0.104));
#1797=CARTESIAN_POINT('',(-0.0625,-6.7076624844435E-18,-0.0325));
#1798=CARTESIAN_POINT('',(-0.0625,0.045,-0.0325));
#1799=CARTESIAN_POINT('',(-0.0625,0.045,0.0125));
#1800=CARTESIAN_POINT('',(-0.0625,0.38,0.0125));
#1801=CARTESIAN_POINT('',(-0.0625,0.1,0.0125));
#1802=CARTESIAN_POINT('',(-0.0625,0.1,0.0145));
#1803=CARTESIAN_POINT('',(0.0625,0.38,0.0125));
#1804=CARTESIAN_POINT('',(-0.0375,0.38,0.0125));
#1805=CARTESIAN_POINT('',(-0.0375,0.1,0.0125));
#1806=CARTESIAN_POINT('',(-0.0375,0.045,0.0125));
#1807=CARTESIAN_POINT('',(0.0625,0.1,0.0125));
#1808=CARTESIAN_POINT('',(0.0375,0.045,0.0125));
#1809=CARTESIAN_POINT('',(0.0625,0.38,0.0125));
#1810=CARTESIAN_POINT('',(0.0375,0.38,0.0125));
#1811=CARTESIAN_POINT('',(0.0375,0.045,0.0125));
#1812=CARTESIAN_POINT('',(0.0375,0.1,0.0125));
#1813=CARTESIAN_POINT('',(0.0625,0.045,0.0125));
#1814=CARTESIAN_POINT('',(0.0625,0.1,0.0125));
#1815=CARTESIAN_POINT('',(0.0625,0.045,-0.0125));
#1816=CARTESIAN_POINT('',(-0.0375,0.045,-0.0125));
#1817=CARTESIAN_POINT('',(-0.0375,0.045,-0.0125));
#1818=CARTESIAN_POINT('',(-0.0375,0.1,-0.0125));
#1819=CARTESIAN_POINT('',(0.0625,0.045,-0.0125));
#1820=CARTESIAN_POINT('',(0.0625,0.1,-0.0125));
#1821=CARTESIAN_POINT('',(0.0625,0.045,-0.0125));
#1822=CARTESIAN_POINT('',(0.0375,0.045,-0.0125));
#1823=CARTESIAN_POINT('',(0.0375,0.1,-0.0125));
#1824=CARTESIAN_POINT('',(0.0375,0.045,-0.0125));
#1825=CARTESIAN_POINT('',(0.0625,0.1,-0.0125));
#1826=CARTESIAN_POINT('',(0.0625,0.045,-0.0125));
#1827=CARTESIAN_POINT('',(0.1375,0.045,0.0325));
#1828=CARTESIAN_POINT('',(0.0375,0.045,0.0325));
#1829=CARTESIAN_POINT('',(0.0375,-8.53702498020082E-18,0.0325));
#1830=CARTESIAN_POINT('',(-0.0375,-4.26851249010041E-18,0.0325));
#1831=CARTESIAN_POINT('',(-0.1375,0.045,-0.0325));
#1832=CARTESIAN_POINT('',(-0.0375,0.045,-0.0325));
#1833=CARTESIAN_POINT('',(-0.0375,-6.09787498585773E-18,-0.0325));
#1834=CARTESIAN_POINT('',(0.0375,-4.26851249010041E-18,-0.0325));
#1835=CARTESIAN_POINT('',(0.0625,0.,0.104));
#1836=CARTESIAN_POINT('',(0.0625,0.,-0.104));
#1837=CARTESIAN_POINT('',(-0.0375,0.,-0.104));
#1838=CARTESIAN_POINT('',(-0.0375,0.,0.104));
#1839=CARTESIAN_POINT('',(-0.0375,-0.11,0.0325));
#1840=CARTESIAN_POINT('',(-0.0375,0.045,-0.0325));
#1841=CARTESIAN_POINT('',(-0.0375,0.025,-0.0325));
#1842=CARTESIAN_POINT('',(-0.0375,0.1,-0.23));
#1843=CARTESIAN_POINT('',(-0.0375,0.,-0.104));
#1844=CARTESIAN_POINT('',(-0.0375,0.025,-0.104));
#1845=CARTESIAN_POINT('',(-0.0375,0.025,-0.104));
#1846=CARTESIAN_POINT('',(0.0625,0.1,0.0145));
#1847=CARTESIAN_POINT('',(0.0375,0.1,0.23));
#1848=CARTESIAN_POINT('',(0.0625,0.045,0.0325));
#1849=CARTESIAN_POINT('',(0.0375,0.045,0.0325));
#1850=CARTESIAN_POINT('',(0.0375,0.025,0.0325));
#1851=CARTESIAN_POINT('',(0.0625,0.025,0.0325));
#1852=CARTESIAN_POINT('',(0.0625,0.025,0.0325));
#1853=CARTESIAN_POINT('',(0.0375,0.025,0.0325));
#1854=CARTESIAN_POINT('',(0.0375,0.025,0.104));
#1855=CARTESIAN_POINT('',(0.0625,0.025,0.104));
#1856=CARTESIAN_POINT('',(0.0625,0.025,0.104));
#1857=CARTESIAN_POINT('',(0.0375,0.025,0.104));
#1858=CARTESIAN_POINT('',(0.0375,0.,0.104));
#1859=CARTESIAN_POINT('',(0.0625,4.26851249010041E-18,0.104));
#1860=CARTESIAN_POINT('',(0.0625,0.,0.104));
#1861=CARTESIAN_POINT('',(0.0375,0.,0.104));
#1862=CARTESIAN_POINT('',(0.0625,0.,-0.104));
#1863=CARTESIAN_POINT('',(0.0625,0.025,-0.104));
#1864=CARTESIAN_POINT('',(0.0625,0.025,-0.104));
#1865=CARTESIAN_POINT('',(0.0625,0.025,-0.0325));
#1866=CARTESIAN_POINT('',(0.0625,0.045,-0.0325));
#1867=CARTESIAN_POINT('',(0.0375,-0.11,-0.0325));
#1868=CARTESIAN_POINT('',(50.,0.101999999999997,20.));
#1869=CARTESIAN_POINT('',(0.,-0.05,6.12323399573677E-18));
#1870=MECHANICAL_DESIGN_GEOMETRIC_PRESENTATION_REPRESENTATION('',(#1155,
#1156,#1157),#1871);
#1871=(
GEOMETRIC_REPRESENTATION_CONTEXT(3)
GLOBAL_UNCERTAINTY_ASSIGNED_CONTEXT((#1875))
GLOBAL_UNIT_ASSIGNED_CONTEXT((#1881,#1880,#1879))
REPRESENTATION_CONTEXT('TSM-102-01-L-SV','TOP_LEVEL_ASSEMBLY_PART')
);
#1872=(
GEOMETRIC_REPRESENTATION_CONTEXT(3)
GLOBAL_UNCERTAINTY_ASSIGNED_CONTEXT((#1876))
GLOBAL_UNIT_ASSIGNED_CONTEXT((#1881,#1880,#1879))
REPRESENTATION_CONTEXT('TSM-102-01-SV_body','COMPONENT_PART')
);
#1873=(
GEOMETRIC_REPRESENTATION_CONTEXT(3)
GLOBAL_UNCERTAINTY_ASSIGNED_CONTEXT((#1877))
GLOBAL_UNIT_ASSIGNED_CONTEXT((#1881,#1880,#1879))
REPRESENTATION_CONTEXT('T-1S6-16-L(-01-2-SV)','COMPONENT_PART')
);
#1874=(
GEOMETRIC_REPRESENTATION_CONTEXT(3)
GLOBAL_UNCERTAINTY_ASSIGNED_CONTEXT((#1878))
GLOBAL_UNIT_ASSIGNED_CONTEXT((#1881,#1880,#1879))
REPRESENTATION_CONTEXT('T-1S6-16-L(-01-2-SV)2','COMPONENT_PART')
);
#1875=UNCERTAINTY_MEASURE_WITH_UNIT(LENGTH_MEASURE(3.93700787401575E-7),
#1881,'DISTANCE_ACCURACY_VALUE','Maximum Tolerance applied to model');
#1876=UNCERTAINTY_MEASURE_WITH_UNIT(LENGTH_MEASURE(3.93700787401575E-7),
#1881,'DISTANCE_ACCURACY_VALUE','Maximum Tolerance applied to model');
#1877=UNCERTAINTY_MEASURE_WITH_UNIT(LENGTH_MEASURE(3.93700787401575E-7),
#1881,'DISTANCE_ACCURACY_VALUE','Maximum Tolerance applied to model');
#1878=UNCERTAINTY_MEASURE_WITH_UNIT(LENGTH_MEASURE(3.93700787401575E-7),
#1881,'DISTANCE_ACCURACY_VALUE','Maximum Tolerance applied to model');
#1879=(
NAMED_UNIT(*)
SI_UNIT($,.STERADIAN.)
SOLID_ANGLE_UNIT()
);
#1880=(
NAMED_UNIT(*)
PLANE_ANGLE_UNIT()
SI_UNIT($,.RADIAN.)
);
#1881=(
CONVERSION_BASED_UNIT('INCH',#1883)
LENGTH_UNIT()
NAMED_UNIT(#1882)
);
#1882=DIMENSIONAL_EXPONENTS(1.,0.,0.,0.,0.,0.,0.);
#1883=LENGTH_MEASURE_WITH_UNIT(LENGTH_MEASURE(25.4),#1884);
#1884=(
LENGTH_UNIT()
NAMED_UNIT(*)
SI_UNIT(.MILLI.,.METRE.)
);
#1885=PRODUCT_DEFINITION_SHAPE('','',#1892);
#1886=PRODUCT_DEFINITION_SHAPE('','',#1893);
#1887=PRODUCT_DEFINITION_SHAPE(' ','NAUO PRDDFN',#33);
#1888=PRODUCT_DEFINITION_SHAPE('','',#1894);
#1889=PRODUCT_DEFINITION_SHAPE(' ','NAUO PRDDFN',#34);
#1890=PRODUCT_DEFINITION_SHAPE('','',#1895);
#1891=PRODUCT_DEFINITION_SHAPE(' ','NAUO PRDDFN',#35);
#1892=PRODUCT_DEFINITION('','',#1900,#1896);
#1893=PRODUCT_DEFINITION('','',#1901,#1897);
#1894=PRODUCT_DEFINITION('','',#1902,#1898);
#1895=PRODUCT_DEFINITION('','',#1903,#1899);
#1896=PRODUCT_DEFINITION_CONTEXT('',#1921,'design');
#1897=PRODUCT_DEFINITION_CONTEXT('',#1921,'design');
#1898=PRODUCT_DEFINITION_CONTEXT('',#1921,'design');
#1899=PRODUCT_DEFINITION_CONTEXT('',#1921,'design');
#1900=PRODUCT_DEFINITION_FORMATION_WITH_SPECIFIED_SOURCE('','',#1908,
 .NOT_KNOWN.);
#1901=PRODUCT_DEFINITION_FORMATION_WITH_SPECIFIED_SOURCE('','',#1909,
 .NOT_KNOWN.);
#1902=PRODUCT_DEFINITION_FORMATION_WITH_SPECIFIED_SOURCE('','',#1910,
 .NOT_KNOWN.);
#1903=PRODUCT_DEFINITION_FORMATION_WITH_SPECIFIED_SOURCE('','',#1911,
 .NOT_KNOWN.);
#1904=PRODUCT_RELATED_PRODUCT_CATEGORY('','',(#1908));
#1905=PRODUCT_RELATED_PRODUCT_CATEGORY('','',(#1909));
#1906=PRODUCT_RELATED_PRODUCT_CATEGORY('','',(#1910));
#1907=PRODUCT_RELATED_PRODUCT_CATEGORY('','',(#1911));
#1908=PRODUCT('TSM-102-01-L-SV','TSM-102-01-L-SV','TSM-102-01-L-SV',(#1916));
#1909=PRODUCT('TSM-102-01-SV_body','TSM-102-01-SV_body',
'TSM-102-01-SV_body',(#1917));
#1910=PRODUCT('T-1S6-16-L(-01-2-SV)','T-1S6-16-L(-01-2-SV)',
'T-1S6-16-L(-01-2-SV)',(#1918));
#1911=PRODUCT('T-1S6-16-L(-01-2-SV)2','T-1S6-16-L(-01-2-SV)2',
'T-1S6-16-L(-01-2-SV)2',(#1919));
#1912=PRODUCT_CATEGORY('','');
#1913=PRODUCT_CATEGORY('','');
#1914=PRODUCT_CATEGORY('','');
#1915=PRODUCT_CATEGORY('','');
#1916=PRODUCT_CONTEXT('',#1921,'mechanical');
#1917=PRODUCT_CONTEXT('',#1921,'mechanical');
#1918=PRODUCT_CONTEXT('',#1921,'mechanical');
#1919=PRODUCT_CONTEXT('',#1921,'mechanical');
#1920=APPLICATION_PROTOCOL_DEFINITION('international standard',
'automotive_design',2010,#1921);
#1921=APPLICATION_CONTEXT(
'core data for automotive mechanical design processes');
ENDSEC;
END-ISO-10303-21;
